<?xml version="1.0" encoding="UTF-8"?>
<svg id="Capa_1" data-name="Capa 1" xmlns="http://www.w3.org/2000/svg" viewBox="0 0 425.2 425.2">
  <defs>
    <style>
      .cls-1 {
        fill: #fff;
      }
    </style>
  </defs>
  <path id="aus" class="cls-1" d="m337.15,234.83c-1.08-5.88-3.2-9.23-6.26-12.74-10.7-10.61-25.2-21.4-34.96-28.79-22.68-16.95-42.29-7.83-68.68-.66-.4.03-1.36.44-1.51-.18,0-.51.16-.72.15-.72,1.22-.91,9.76-7.3,11.03-8.27,2.91-1.62,10.25-4.49,13.73-5.9,12.43-7.17,8.96-25.72-7.1-25.95l-22.37,1.22c-.85.08-8.41.95-13.84,4.4-1.32.88-7.16,4.17-16.07,8.74-8.2,4.8-16.49,3.45-26.35-.61-4.64-1.67-10.27-3.69-10.78-3.87-.96-.5-9.8-3.05-15.19-2.46-14.03,1.19-23.79,12.7-22.82,26.17.1,3.18.59,5.71.8,6.66.02.11,2.48,11.13,3.98,14.57.41.92.56,1.56.52,2.28-3.15-1.4-9.25-5.38-14.62-5.12-7.45-.07-18.24,5.48-18.84,21.23-1.85,44.17,21.1,58.51,57.14,42.17.92-.37,111.27-45.85,111.4-45.91,11.32-5.22,24.1-2.61,31.15,7,1.39,1.81,8.94,12.84,11.72,16.91.67,1.13,6.89,11.01,18.87,11.01,11.46.62,20.53-11.61,18.92-21.21Zm-209.69-31.29c-2.06-7.37-7.21-20.09-1.85-29.17,6.64-10.16,18.5-9.03,26.07-6.12,14.15,4.89,28.51,12.88,43.21,3.89,2.76-1.41,12.1-6.23,16.26-8.86,3.95-2.5,9.98-3.23,10.62-3.31-.81.02,19.74-1.06,21.93-1.2,1.19.03,7.12.49,7.3,6.18.12,3.89-2.95,5.92-3.5,6.26-3.58,1.43-11.71,4.61-14.28,6.2,0,0-11.65,8.7-11.65,8.7-5.05,3.73-3.71,14.21,4.42,13.83,24.97-4.59,43.24-17.66,65.68-.87,0,0,9.97,7.52,9.97,7.52,5.52,4.34,20.56,16.44,23.86,20.23,2.46,2.79,4.14,5.58,4.7,10,.09,5.71-5.14,12.48-11.86,12.08-8.09,0-12.49-7.02-12.98-7.84-.1-.15-10.17-14.92-12.03-17.34-10.37-13.68-27.4-14.93-39.72-9.09,0,0-111.37,45.88-111.4,45.9-12.99,5.77-32.85,11.85-42.71-5.76-3.01-3.8-4.56-19.83-4.37-29.99,0-8.01,5.07-11.77,5.63-12.17,5.25-3.48,10.09-1.5,15.5,1.6,7.47,4.62,15.48-.71,11.21-10.67Z"/>
</svg>