<?xml version="1.0" encoding="UTF-8"?>
<svg id="Capa_1" data-name="Capa 1" xmlns="http://www.w3.org/2000/svg" viewBox="0 0 425.2 425.2">
  <defs>
    <style>
      .cls-1 {
        fill: #fff;
      }
    </style>
  </defs>
  <path id="aut" class="cls-1" d="m192.01,289.14c-2.27,0-4.63-1.09-6.08-3.64-.22-.4-.49-.88-.79-1.41-1.46-2.61-3.9-6.99-5.63-9.13l-.08-.1c-.93-1.23-22.96-30.33-29.14-41.23-2.46-4.42-6.58-11.34-8.07-12.96-2.44-2.64-4.9-5.21-4.93-5.24l-.28-.33c-.33-.43-3.16-4.31-1.01-9.16.54-1.21,1.08-2.53,1.51-3.62.49-1.23.21-2.62-.71-3.57l-.23-.23c-.45-.47-1.37-1.41-2.63-2.72-28.12-29.1-35.65-36.4-37-37.4l-.31-.24c-2.8-2.46-3.18-3.07-3.41-3.44-1.03-1.62-1.23-4.02-.48-5.71.69-1.56,2.52-3.33,4.66-3.67l3.57-.7c2.27-.38,4.55-.66,6.32-.89l.15-.02c7.21-.97,26.86-2.6,53.52,3.17,29.51,6.38,54.02,6.7,63.25,6.82h1.18c10.31.14,13.42.18,15.7,4.37,1.97,3.62,1.39,8.4-1.53,12.49-.1.13-.21.31-.35.51-12.06,17.69-28.89,19.31-40.9,17.55l-24.8-3.63c-.13-.02-.25-.03-.37-.02-1.5.04-7.39.44-9.55,5.33-2.31,5.21-.68,8.36,2.65,13.94.37.62.74,1.25,1.11,1.88,2.75,4.75,7.05,12.02,8.69,14.79.8,1.35,1.8,2.58,3.02,3.58,1.39,1.14,3.3,2.23,5.55,2.23,4.54,0,6.96-2.69,10.85-7.43l.69-.83c4.99-6.05,12.63-13.08,27.54-13.66,13.35-.52,70.94-2.95,74.03-3.08,4.7-.47,14.16,1.23,17.37,10.99,2.9,8.83,7.27,22.95,7.76,24.54.88,2.33,1.24,7.2-3.26,10.41-3.15,2.25-10.54,7.53-21.19,10.64-9.58,2.8-98.71,28.85-103.73,30.31h0c-1.47.33-2.02.51-2.63.5Zm122.75-50.96c-.05-.15-4.26-13.71-7.29-22.95-1.98-6.02-8.35-5.59-9.06-5.52l-.24.02c-.6.03-60.52,2.55-74.18,3.09-11.67.45-17.51,5.69-21.68,10.75l-.67.82c-3.98,4.86-8.49,10.36-17.04,10.36-9.11,0-14.47-8.12-14.69-8.47l-.08-.13c-.06-.1-5.95-10.02-9.41-16-.35-.6-.7-1.2-1.06-1.79-3.37-5.65-7.18-12.04-3.09-21.28,4.68-10.56,17.07-10.11,17.59-10.09l.39.04,25.22,3.69c14.17,2.08,25.32-2.68,33.13-14.14.18-.26.33-.48.45-.66.01-.02.02-.03.03-.05,1.17-1.66-.04-3.97-2.07-4.04-1.56-.05-3.53-.08-5.72-.1h-1.18c-9.45-.14-34.54-.46-64.84-7.01-26.14-5.66-45.46-3.77-50.76-3.06l-.16.02c-.6.08-1.75.24-2.88.5-1.48.34-1.95,1.35-.72,2.51,5.21,4.91,16.24,16.19,34.96,35.56,1.25,1.29,2.16,2.23,2.61,2.7,4.8,4.93,4.09,8.6,3.56,9.94-.15.4-1.39,3.54-2.57,6.3-.23.55-.07,1.16,1.1,2.22.73.76,1.68,1.65,3.68,3.82,2.68,2.9,8.11,12.56,9.17,14.47,5.79,10.21,27.47,38.89,28.51,40.27,2.17,2.69,2.68,4.55,6.37,10.22.55.85,1.15,1.19,2.86.47,6.31-1.84,91.63-27.24,101.13-30.02,9.35-2.73,14.86-6.85,18.02-8.9.84-.55,1.15-1.9.77-3.02"/>
</svg>