<?xml version="1.0" encoding="UTF-8"?>
<svg id="Capa_1" data-name="Capa 1" xmlns="http://www.w3.org/2000/svg" viewBox="0 0 425.2 425.2">
  <defs>
    <style>
      .cls-1 {
        fill: #fff;
      }
    </style>
  </defs>
  <g id="fra">
    <path class="cls-1" d="m329.22,275.49c5.8,1.62,8.9,5.62,7.72,9.99l-.61,2.26c-1.29,4.94-1.9,7.07-2.31,8.15-.1.28-.19.51-.29.69-1.17,3.3-8.23,3.24-13.57,2.46-1.68-.08-93.38-4.83-104.54-5.61-22.71-1.59-55.24-11.35-64.78-34.01-2.61-6.38-1.74-13.77-8.11-14.67-6.52-.26-11.75,1.55-16.36-7.05-2.23-4.35-11.5-24.13-13.06-26.3-1.38-1.62-6.56-6.38-10.99-9.44-5.55-3.78-13.98-9.55-14.26-20.55-.67-8.73,7.09-17.04,14.42-17.43,12.67.35,26.19,16.44,37.06,29.37,3.37,4.66,10.02,14.81,12.64,16.92,3.76,4.08,5.4,5.05,8.46,3.66,5.83-3.06,4.87-10.17-2.04-21.94-4.25-6.96-13.23-14.9-16.16-17.51-6.32-5.5-27.44-22.65-37.81-31.17-2.81-2.43-3.2-5.63-1.15-9.56,1.29-2.44,4.22-8.03,10.37-8.03,6.16.38,28.79,18.56,31.66,21,10.31,8.83,70.74,59.65,78.18,65.24,9.61,7.53,8.07-4.27,18.79-3.78,3.92,0,7.76,1.27,9.76,1.92,4.77,1.58,45.94,15.42,48.19,16.2,6.82,2.36,10.27,9.4,8.19,16.76-1.27,5.56-9.38,10.66-10.68,15.79-1.41,8.44,9.99,10.87,31.28,16.63Zm.33,10.52c.03-.1.52-1.94.61-2.22-.17-.28-1.05-1.04-2.89-1.54l-1.55-.4c-17.17-4.35-26.46-7.79-30.03-11.16-5.73-5.4-5.03-10.36-4.7-12.8.58-6.24,8.7-11.48,10.86-16.67.85-2.92.34-6.86-3.81-8.29-2.22-.76-43.31-14.6-47.92-16.11-3.7-1.21-6.14-1.62-7.84-1.62-1.77,0-2.73.46-3.24.99-6.41,6.83-12.33,6.86-19.62,1.42-7.53-5.68-68.19-56.68-78.53-65.54-9.07-7.76-24.07-18.25-27.08-19.34-1.05,0-2.19.5-4.13,4.22-.16.29-.27.56-.33.74-.04.35,6.07,5.35,6.39,5.61,10.05,8.2,26.87,21.92,31.37,25.9,5.45,4.8,13.2,12.04,17.48,19.09,7.69,12.89,10.87,25.29-.78,31.84-5.88,2.76-10.69,1.63-16.37-4.66-3.21-2.64-9.63-12.51-13.45-17.8-6.52-8.04-14.18-16.25-18.26-19.53-7.67-6.21-10.75-7.19-12.83-7.19-3.84.3-8.31,5.17-7.84,10.15.2,7.47,6.31,11.65,10.74,14.69,5.38,3.7,11.1,8.92,12.91,11.05,2.13,2.53,13.17,25.94,14.05,27.94,1.38,3.73,6.89,3.88,11.03,3.52,8.74-.79,9.16,4.02,11.98,14.2,8.11,23.6,38.06,32.07,60.37,33.92,11.18.77,103.57,5.56,104.48,5.61,2.79.31,4.91.48,7.2.32.52-1.69,1.3-4.71,1.72-6.36"/>
  </g>
</svg>