<?xml version="1.0" encoding="UTF-8"?>
<svg id="Capa_1" data-name="Capa 1" xmlns="http://www.w3.org/2000/svg" viewBox="0 0 425.2 425.2">
  <defs>
    <style>
      .cls-1 {
        fill: #fff;
      }
    </style>
  </defs>
  <path id="gbr" class="cls-1" d="m166.37,178.31h0c-.04.54.18,4.96.29,6.81-.35,7.36-13.69,9.26-14.71,17.53-.36,4.25.5,6.78-2.12,11.44-1.59,2.56-8.57,14.14-8.69,14.35-4.74,8.87-6.94,10.79-11.91,30.35-.73,4.51,1.33,10.99,7.69,14.17,4.77,2.82,34.13,18.14,39.9,21.07.05.03,5.17,2.53,10.05,2,3.74-.42,8.86-1,15.22-4.3l12.52-7.34c5.87-3.37,4.98-14.06-2.4-16.27-2.75-.99-6.91-.76-10.33,2.86l-4.55,5.57c-.97.9-2.9-.38-3.74-.95-.01,0-1.16-1.03-1.56-2.48-2.02-8-15.19-58.29-17.47-67.25,1.77-2.84,3.19-4.76,8.12-8.89,0,0,.37-.26,1.53-.87-1.43,6.77-4.85,10.19.38,14.75,2.25,1.29,4.72,1.12,5,1.1l19.97-1.92c10.53-1.02,17.2,17.03,28.97,13.72,9.33-3.15,38.9-13.6,50.5-17.76,4.08-.68,7.08-6.52,7.06-15.88-.11-6.56-2.61-12.58-10.95-10.33-.66-4.59-2.22-15.21-2.75-18.89-.01-.07-.84-6.99-.04-12.38.81-5.35.84-5.59.82-6.58-.48-10.08-10.86-16.12-21.39-10.91-14.68,5.37-62.71,32.43-74.88,38.74-.88.53-.95.52-1.21.49-1.57-.31-3.83-1.44-5.45-1.69-6.26-1.42-13.22,3-13.87,9.75Zm16.63,10.4c-8.24,4.58-12.78,10.53-14.99,14.83-.81,1.94-.15,4.29-.02,4.72l14.38,55.14c.12.49,2.3,9.06,2.95,11.5,1.17,3.74,3.07,5.36,4.29,6.36,3.86,2.99,10.32,3.67,13.22-.53l4.26-5.24c2.55-2.76,5.71.68,3.95,2.98l-12.33,7.23c-7.17,3.23-12.88,4.65-18.74,2.17-5.38-2.86-34.91-18.11-39.43-20.81-2.7-1.18-4.78-3.87-4.51-7.02,4.6-17.88,6.14-18.88,11.05-28.08,2.11-3.46,6.94-11.56,8.63-14.25,3.63-6.69,2.77-8.54,3.12-14.27.05-.2.65-1.19,1.28-1.76,5.92-4.51,14.05-8.83,13.49-16.95.04-1.42-.38-4.98-.3-6.07.88-3.28,4.49-4.25,7.65-2.68,3.15,1.59,7.39,1.43,9.85-.5,9.95-5.14,64.43-35.4,73.53-38.06,5.81-2.17,7.56-2.19,10.89,1.41.73,1.13.99,2.79,1.02,3.32,0,.25-.09.89-.56,4.04-2.24,11.97,2.67,31.73,2.74,35.84.69,3.5,2.96,4.99,6.47,4.76l3.36-.6c.08,0,.18,0,.27.01,1.69,4.84-.43,12.6-1.25,13.12,0,.02-.02.03-.03.05-11.37,4.01-44.78,15.77-50.61,17.73-1.94.45-3.13-.45-5.67-2.09-3.03-2.2-8.33-7.95-12.86-10.15-4.13-2.04-8.41-1.77-9.23-1.7-.12,0-19.89,1.96-19.99,1.9.57-2.06,1.88-6.77,2.43-8.54,2.4-6.37-4.14-10.25-8.32-7.82Z"/>
</svg>