<?xml version="1.0" encoding="UTF-8"?>
<svg id="Capa_1" data-name="Capa 1" xmlns="http://www.w3.org/2000/svg" viewBox="0 0 425.2 425.2">
  <defs>
    <style>
      .cls-1 {
        fill: #fff;
      }
    </style>
  </defs>
  <path id="idn" class="cls-1" d="m153.62,323.64c-2.39,0-4.49-.65-6.16-1.92-1.76-1.35-3.81-4.02-3.59-9.09.31-7.24,5.35-38.15,5.67-40.1.15-1.09,1.35-8.02,8.33-10.74,1.62-.63,3.99-1.13,6.99-1.75,7.6-1.59,20.31-4.25,23.1-10.86,2.2-5.22,1.59-31.63.69-47.05v-.12s0-.12,0-.12c-.02-.66-.41-4.31-6.13-5.5-.72-.15-1.45-.29-2.19-.44-7.55-1.49-16.94-3.34-24.08-12.83-.27-.37-27.36-37.2-26.14-53.45.7-9.3,3.75-20.97,10.21-25.85,2.61-1.97,5.6-2.68,8.66-2.07.77.14,3.8.88,5.77,3.96,1.9,2.99,2.1,7.03.59,12.01-.86,2.83-1.78,5.42-2.59,7.7-1.82,5.11-3.4,9.53-1.95,10.68,1.44,1.15,5.04,1.21,7.13.89l122.64-22.84c.64-.13,6.7-1.22,10.61,1.68,4.13,3.07,4.02,7.46,3.96,10.08,0,.3-.02.6-.02.88,0,2.55-1.97,30.27-2.2,33.42-.34,3.28-2.24,8.88-7.29,9.66-2.09.32-3.67-.03-4.94-.31-1.47-.33-2.53-.57-4.79.18-2.85.95-5.51,3.91-4.82,7.51.68,3.54,11.48,15.76,21.11,25.07.64.58,2.93,2.93,2.93,6.8,0,2.75-.4,29.29-.44,31.56.06,1.39-.24,6.22-6.4,11.57-1.65,1.43-13.59,13.74-21.26,21.71-.92,1.05-5.4,5.39-15.46,3.86-4.82-.73-7.6-.83-13.96,1.36-3.07,1.06-4.61,2.67-7.67,5.88-1.46,1.53-3.28,3.44-5.67,5.68-8.46,7.92-54.04,28.36-65.63,32.04-1.76.56-3.44.84-5,.84Zm41.61-121.79c.27,4.69,2.3,41.63-1.2,49.9-4.13,9.8-18.4,12.78-27.83,14.75-2.49.52-4.83,1.01-5.95,1.44-3.63,1.41-4.16,5.28-4.18,5.44l-.02.15c-.05.32-5.29,32.45-5.6,39.37-.05,1.23.08,2.85,1.01,3.56.96.73,2.93.75,5.15.04,11.72-3.73,56.16-24.05,63.11-30.57,2.25-2.11,3.93-3.87,5.41-5.42,3.32-3.48,5.71-5.99,10.3-7.57,7.37-2.54,11.08-2.56,17.1-1.64,6.87,1.04,9.42-1.58,9.44-1.6l.21-.24c1.97-2.05,19.35-20.09,21.75-22.18,3.74-3.25,4.1-5.73,4.13-6.2l-.07-.31.06-.07c0-.29.44-28.81.44-31.57,0-1.18-.73-1.88-.76-1.91l-.18-.13.06.03c-3.6-3.48-21.62-21.19-23.05-28.61-1.24-6.4,2.72-12.86,9.21-15.03,3.99-1.33,6.49-.77,8.32-.36.99.22,1.64.37,2.49.23.76-.12,1.59-2.33,1.73-3.71.87-12.18,2.17-31.1,2.17-32.85,0-.33,0-.68.02-1.04.06-2.5-.04-3.69-1.29-4.61-1.18-.88-4.12-.76-5.43-.5l-122.76,22.86c-.89.14-8.09,1.18-12.37-2.23-5.13-4.09-2.82-10.56-.15-18.05.79-2.21,1.68-4.72,2.49-7.4.88-2.91.95-5.21.2-6.48-.51-.87-1.33-1.06-1.43-1.08l-.2-.02h.1c-1.21-.25-2.29.02-3.4.86-3.76,2.84-6.89,11.5-7.61,21.08-.77,10.25,15.79,36.96,24.83,48.99,5.62,7.47,12.64,8.86,20.08,10.32.76.15,1.51.3,2.25.45,8.98,1.86,11.37,8.52,11.4,11.9Zm92.86,39.33h0Z"/>
</svg>