<?xml version="1.0" encoding="UTF-8"?>
<svg id="Capa_1" data-name="Capa 1" xmlns="http://www.w3.org/2000/svg" viewBox="0 0 425.2 425.2">
  <defs>
    <style>
      .cls-1 {
        fill: #fff;
      }
    </style>
  </defs>
  <g id="ind">
    <path class="cls-1" d="m124.1,296.48c-3.33-.05-6.35-1.43-8.33-3.78-2.7-3.15-3.27-7.65-1.49-11.75.52-1.41,1.31-2.67,2.36-3.75l60.37-62.44c1.52-1.58,2.18-3.72,1.71-5.6-.43-1.73-1.78-3.05-3.79-3.69-13.07-4.22-35.04-10.92-35.26-10.99l-.23-.08c-8.23-3.19-9.88-10.55-10.97-15.42-.31-1.37-.76-3.4-1.19-3.97l-27.49-8.99c-8.85-2.89-15.04-9.08-16.56-16.55-1.36-6.69,1.53-15.23,9.7-18.59,12.34-5.25,17.86.05,24.26,6.2.45.43.91.87,1.38,1.32l32.71,30.43c.44.46,1,.8,1.61.98,2.21.35,5.08-1.06,8.12-2.55,3.84-1.89,8.2-4.03,12.76-3.12,1.1.17,2.18.46,3.22.87l38.29,15.27c4.06,1.61,7.04,4.98,8.18,9.24,1.38,4.69.05,9.94-3.39,13.4l-36.27,37.03c16.11-1.3,39.84-3.21,61.89-4.96h0c54.77-4.34,56.64-4.3,57.33-4.32,6.47.22,10.25,5.49,10.21,10.46v.27c-.14,1.42-.31,2.73-.47,3.99-.68,5.33-1.13,8.85,1.99,13.99,1.51,2.5,3.53,4.75,6,6.7,5,3.95,10.69,7.92,16.93,11.8,3.75,2.34,5.45,6.87,4.21,11.28-1.22,4.38-4.85,7.25-9.23,7.3H124.1Zm17.59-108.19c1.79.55,22.63,6.91,35.24,10.98,4.16,1.34,7.11,4.37,8.09,8.3,1.03,4.1-.22,8.47-3.34,11.7l-60.37,62.44c-.43.44-.74.95-.94,1.52l-.1.25c-.4.88-1.14,3.14.45,5,.79.93,2.03,1.47,3.43,1.49h208.48c2.14-.03,2.85-1.96,3.01-2.55.36-1.3.19-3.04-1.39-4.02-6.44-4.01-12.34-8.12-17.52-12.22-3.08-2.43-5.61-5.27-7.53-8.43-4.29-7.08-3.6-12.47-2.88-18.18.15-1.16.3-2.35.42-3.59-.04-.92-.75-3.7-3.85-3.81-1.08,0-11.87.75-56.68,4.3h0c-23.6,1.87-49.13,3.93-65.17,5.22-2.17.21-4.26-.99-5.21-3.03-.95-2.02-.54-4.38,1.01-5.9l38.6-39.41c1.79-1.8,2.49-4.61,1.77-7.02l-.03-.11c-.59-2.26-2.16-4.05-4.3-4.9l-38.29-15.27c-.59-.23-1.21-.4-1.84-.49l-.21-.04c-2.4-.51-5.44.99-8.66,2.57-3.91,1.92-7.96,3.91-12.32,3.08l-.23-.05c-1.77-.47-3.38-1.41-4.66-2.71l-32.55-30.27c-.51-.48-.98-.93-1.43-1.37-6.25-6-8.83-8.48-17.25-4.89-5.52,2.27-6.51,8-5.84,11.3,1.23,6.06,7.12,10,12.21,11.67l27.47,8.98c3.83,1.14,4.73,5.17,5.53,8.73.97,4.32,1.97,8.79,6.88,10.74Z"/>
  </g>
</svg>