<?xml version="1.0" encoding="UTF-8"?>
<svg id="Capa_1" data-name="Capa 1" xmlns="http://www.w3.org/2000/svg" viewBox="0 0 425.2 425.2">
  <defs>
    <style>
      .cls-1 {
        fill: #fff;
      }
    </style>
  </defs>
  <path id="jpn" class="cls-1" d="m298.05,263.4l-23.31-128.5c-.57-2.61-3.24-7.2-9.62-6.41-2.94.36-4.64,1.82-5.54,2.98-2.27,2.88-1.79,6.52-1.77,6.67l8.32,63.04c.05.21.13.94-.83,1.67-.28.21-.53.32-.76.32-.18,0-.37-.07-.85-.43l-28.78-18.82c-2.46-1.84-9.12-3.04-13.93-.51-8.01,3.7-8.85,10.89-9.16,13.62-.31,2.82-.27,5.71-2.73,7.68-2.94,2.2-5.19,1.91-8.08,1.8-2.56-.15-31.31-.54-37.13-.62-7.83.02-16.93,5.89-20.72,13.06l-15.69,30.63c-.28.89-1.51,5.5,1.21,8.51,1.49,2,5.73,3.76,9.19,2.72,3.27-.7,63-12.63,81.55-16.36,2.09-.17,4.8-.31,7.14,1.61,2.34,2.24,2.54,3.77,2.65,4.57.49,2.04,1.92,7.81,2.07,8.45-.01.32-.09.63-.2.8-3.28,1.73-58.13,4.17-90.5,6.91-3.71,0-10.89,2.01-11.53,9.61l-.5,7.4c.62,3.39,3.27,9.23,9.31,9.62,4.93.32,95.87,3.21,100.48,3.35,4.75.16,11.87-3.55,8.65-11.98-.42-1.13-.25-1.99.54-2.66l10.92-10.17c.07-.08.48-.27,1.51-.22l30.52,1.14c3.72.1,8.85-3.01,7.56-9.49Zm-7.49,2.68c-1.62-.26-7.56-.69-29.94-1.29-3.52-.56-6.21,1.16-7.44,2.65l-10.23,9.47c-1.82,1.46-4.4,5.3-2.49,10.39.44,1.19.35,1.76.31,1.82-.21.29-1.38.68-2.32.68-70.88-2.26-101.2-3.32-100.07-3.34-1.76-.11-2.65-2.83-2.87-3.62l.51-5.92c.23-2.72,3.12-3.14,4.86-3.15.83-.06,85.71-6.05,88.2-6.16,5.84-.04,9.86-4.6,9.12-9.73-.45-1.82-1.99-8.09-2.14-8.63-.11-1.53-.86-4.64-4.65-8.26-4.17-3.69-8.77-3.86-13.18-3.41-3.58.72-79.43,15.88-81.82,16.41-1.32.29-2.02-.05-2.44-.47-.1-.22.01-1.37.1-1.69.15-.29,15.27-29.7,15.28-29.71,2.47-4.57,8.76-9.11,14.45-9.25,16.59.23,34.99.52,36.91.62,4.57.43,9.45-.55,12.72-3.35,4.88-4.07,4.9-8.6,5.33-12.39.41-3.58,1.43-6.31,5.1-8,1.22-.56,2.46-.85,3.68-.85,2.08,0,3.45.84,3.49.86l28.63,18.71c6.27,4.94,15.03-1.96,13.28-8.89l-8.2-62.37c-.14-1.43.51-1.71,1.16-1.79,1.14-.13,1.79.19,2,.94.1,1.34,22.45,122.23,23.32,129.38-.13.07-.45.16-.66.17v.16Z"/>
</svg>