<?xml version="1.0" encoding="UTF-8"?>
<svg id="Capa_1" data-name="Capa 1" xmlns="http://www.w3.org/2000/svg" viewBox="0 0 425.2 425.2">
  <defs>
    <style>
      .cls-1 {
        fill: #fff;
      }
    </style>
  </defs>
  <path id="por" class="cls-1" d="m249.81,164.81c4.9.49,6.48,1.59,6.99,2.21.69.84.66,2.55.52,3.83-.01.13-.02.26-.03.39-.25,4.84-.13,13.89-.02,21.16.03,2.02.05,3.86.07,5.35,0,.15,0,.3.02.45.54,6.89,2.86,15.92,10.85,19.8.1.05.2.09.3.14,7.58,3.23,23.12,9.42,26.45,10.74,1.36.79,2.91,1.2,4.56,1.2,3.65,0,7.4-2.11,9.33-5.25,1.66-2.71,1.83-5.96.45-8.69-.09-.17-.18-.33-.28-.49-2.24-3.63-13.99-20.75-16.32-24.14-.89-1.3-1.19-2.92-.82-4.46.2-.84.8-2.38,2.53-3.3,1.87-1,4.48-1.53,7.54-1.55,3.52,0,5.7,1.43,8.91,5.85,2.16,3.45,4.98,7.18,7.97,11.13,12.71,16.79,21.8,30.56,13.74,41.86-.27.32-.52.67-.73,1.04-5.51,8.2-10.87,15.87-25.04,17.49-11.16.54-43.21.84-90.35.84-55.09,0-108.99-.41-114.34-.75-.35-.06-.7-.09-1.06-.09-1.9,0-3.1-.43-3.5-.7l-3.82-14.51-2.76-10.46-.91-3.45-.25-.97c-.02-.09-.05-.17-.07-.25h0c-.29-1.17-.18-1.95.43-3.04,1.23-2,6.82-11.77,9.21-15.96,0-.02.02-.03.03-.05.37-.65.94-1.12,1.39-1.36.04.11.08.25.12.41,0,.04.02.07.03.11,1.77,6.68,4.92,15.44,5.59,17.28.02.08.04.17.07.25,1.33,4.42,5.95,9.59,14.59,9.59h93c5.16,0,9.47-3.54,10.49-8.62,1.16-5.76-2.19-11.52-8.15-14.01-.03-.01-.06-.02-.08-.03-1-.4-4.31-1.66-8.49-3.26-3.55-1.36-7.51-2.87-10.39-3.98-.07-.03-.14-.05-.2-.08-2.9-1.01-6.12-1.23-8.32-1.23s-4.26.21-6.03.6c-4.91,1.08-24.35,5.53-28.2,6.41l-.08.02c-.11.03-.22.05-.33.09-1.51.43-3.48.69-5.27.69-3.37,0-5.07-.85-5.37-1.26-.07-.1-.15-.19-.22-.29-3.28-4-8.64-11.07-11.55-14.93-.47-.63-.74-1.33-.74-1.98,0-.15,0-.3-.02-.45-.04-.54.16-1.35.69-1.92.27-.29.76-.68,1.83-.68.18,0,.38.01.58.03,7.85.88,25.74,3.35,40.11,5.33,13.39,1.85,18.57,2.55,19.8,2.64.1,0,.2.01.3.02.75.02,1.52.04,2.29.04,5.05,0,11.61-.68,17.55-5.99.1-.09.21-.19.31-.29,5.42-5.5,20.57-20.59,24.09-24.09,1.65-1.26,6.41-4.2,11.05-4.41m.21-6.61c-7.73.14-14.56,5.2-15.65,6.08-1.15,1.15-18.48,18.39-24.4,24.4-4.17,3.72-8.78,4.31-13.16,4.31-.71,0-1.41-.02-2.1-.04-2.74-.2-46.09-6.43-59.66-7.95-.45-.05-.89-.08-1.32-.08-6.2,0-9.44,5.22-9.1,9.7.01,2.14.78,4.2,2.07,5.91,2.64,3.5,8.26,10.92,11.72,15.14,2.16,2.95,6.5,3.96,10.7,3.96,2.59,0,5.13-.39,7.07-.94,1.21-.28,23-5.26,28.23-6.42,1.29-.28,2.93-.44,4.61-.44,2.18,0,4.45.26,6.14.86,6.11,2.36,17.01,6.49,18.8,7.21,6.33,2.65,5.09,9.95.2,9.95-15.32,0-93,0-93,0-6.63,0-8.13-4.42-8.27-4.89l-.07-.29c-.04-.1-3.65-9.94-5.53-17.03-.99-4.01-3.4-5.62-5.99-5.62-2.91,0-6.05,2.02-7.68,4.93-3.21,5.62-8.3,14.49-9.16,15.87-1.52,2.65-1.86,5.19-1.16,8,0,0,8.02,30.42,8.02,30.42,1.34,3.56,5.55,4.92,9.7,4.92.2.4,59.7.83,115.4.83,40.11,0,78.25-.23,90.88-.85,17.38-1.92,24.17-11.73,30.25-20.8-.03.04-.04.05-.04.05,0,0,.07-.1.07-.1,0,0,0,.01-.03.05,15.37-20.53-11.61-45.42-21.25-60.98-3.77-5.25-7.7-8.78-14.39-8.78h-.01c-4.3.02-7.87.84-10.64,2.33-6.25,3.34-8.05,11.48-4.04,17.32,6.29,9.15,14.45,21.13,16.15,23.88,1.03,2.04-1.68,4.36-3.89,4.36-.56,0-1.09-.15-1.51-.49-.56-.22-18.73-7.44-26.92-10.92-6.03-2.93-6.91-11.25-7.15-14.38-.06-6.61-.37-20.14-.05-26.11,1.08-9.68-5.16-12.59-13.86-13.38h0Z"/>
</svg>