<?xml version="1.0" encoding="UTF-8"?>
<svg id="Capa_1" data-name="Capa 1" xmlns="http://www.w3.org/2000/svg" viewBox="0 0 425.2 425.2">
  <defs>
    <style>
      .cls-1 {
        fill: #fff;
      }
    </style>
  </defs>
  <path id="rsm" class="cls-1" d="m341.56,247.12l-.7-.11h0l.68-.05c-.14-1.56-.22-3.32-.32-4.52-.41-6.05-2.79-12.76-4.83-16-1.64-2.6-29.72-41.36-31.63-43.65-2.06-2.5-5.54-4.08-8.34-5.18l-97.18-38.21c-.19-.08-4.84-1.88-12.95-3.5-1.69-.34-3.28-.51-4.75-.51-9.65-.2-14.28,8.69-8.32,16.85,1.48,2.04,9.58,9.54,12.07,10.74,1.05.51,8.01,2.31,22.53,6.01,10.86,2.76,23.16,5.89,25.66,6.79,5.07,1.84,15.75,6.64,18.9,8.39,5.56,2.93,3.56,9.04-1.92,10.83-3.2,1.12-29.89,7.24-42.77,10.08-27.6,6.49-60.18,5.54-88.51,7.1-4.24-.03-4.19-1.16-5.31-3.17-1.34-2.51-5.71-12.23-6.94-14.36-1.7-2.99-4.46-3.26-6.9-3.22-2.62.09-10.46,1.13-12.32,1.5-2.39.47-4.09,1.83-4.77,3.82-1.44,5.4,2.64,8.7,6.7,13.44,5.5,6.3,14.7,16.85,19.43,21.86,3.71,3.93,7.94,5.93,12.58,5.93,1.99,0,3.63-.37,4.7-.65,1.37-.36,7.48-2.13,28.81-8.53l1.98-.59c.74-.23,1.36-.34,1.88-.34,1.41-.06,2.07,1.26,3.08,2.12,2.93,2.95,6.91,7.83,10.4,10.65,3.29,2.7,7.51,3.28,11.78,1.74,1.01-.36,18.48-7.13,45.03-17.44,29.16-11.31,62.21-24.14,63.98-24.76,1.93-.84,4.17.43,5.29,1.73,1.17,1.33,19.26,34.18,22.29,40.1,1.89,3.71,1.9,4.79,1.46,7.2-.45,2.28-16.8,24.24-18.73,27.68-1.15,2.42-3.46,5.81.08,10.38,1.4,1.71,3.25,2.57,5.5,2.57,4.58-.24,6.66-2.2,9.89-4.04,8.11-4.91,17.65-10.72,19.38-12.15,2.7-2.22,3.92-5.66,4.14-8.13.18-1.96-.47-11.07-.99-18.39Zm-15.81-10.74c-1.86-3.65-21.71-38.23-22.62-39.7-1.25-2.01-4.95-3.53-8.6-3.53-1.44,0-2.8.23-4.05.69-1.38.52-23.96,9.23-45.73,17.64l-2.99,1.15c-30.15,11.33-56.94,22.66-61.9,23.4-1.4,0-2.84-.62-4.4-1.9-3.52-2.91-6.34-6.74-9.03-9.71-4.06-5.89-10.38-3.03-17.26-.97-10.99,3.05-21.35,7.06-27.2,7.38-3.39,0-6.21-1.42-8.88-4.47-2.06-2.35-4.78-5.42-7.48-8.48-4.02-4.54-10.48-11.82-12.05-13.73-1-1.21-3.08-3.72-3.12-4.26,2.06-1.03,6.34-1.43,9.19-1.54q1.05,0,1.95,1.59c1.19,2.13,5.77,11.48,6.99,13.73,2.07,3.71,5.45,5.59,10.05,5.59,5.14-.05,59.38-2.83,64.15-3.21,14.16-.52,59.41-11.74,70.65-15.02,9.92-3.51,14.22-15.8,2.06-22.88-3.32-1.91-14.64-7.16-19.31-8.85-3.39-1.43-43.74-10.86-48.34-12.48-1.62-.78-6.6-6.02-8.09-8.14-1.24-1.76-1.64-3.66-1.02-4.82,1.04-1.69,3.18-1.44,4.88-1.17,6.8,1.3,14.88,3.72,16.43,4.19.71.28,88.16,34.87,91.58,36.21,2.76,1.08,6.61,2.71,8.02,4.42,1.37,1.65,27.96,37.66,29.92,40.76,1.54,2.45,4.26,7.93,4.66,12.97.15,1.78.4,4.44.67,7.26.52,5.36,1.3,13.47,1.17,14.9-.24,2.57-1.05,4.34-2.54,5.57-1.6,1.31-12.24,7.66-17.76,10.95-2.81,1.52-4.11,2.83-6.06,3.3-.11,0-.36,0-.78-.46-.88-.94-.72-1.3.47-2.73.74-.88.75-.97,1.69-2.24,16.05-21.87,18.41-26.68,18.8-28.4.51-2.33-.83-6.59-4.11-13.02Z"/>
</svg>