<?xml version="1.0" encoding="UTF-8"?><svg id="Capa_1" xmlns="http://www.w3.org/2000/svg" viewBox="0 0 210 116"><defs><style>.cls-1{fill:#9e9fa3;}</style></defs><path class="cls-1" d="m27.14,112.9h-.04c-.46-.02-.95-.02-1.46-.01-1.56.02-3.34.03-4.9-.79-5.03-2.74-8.86-7.58-10.26-12.97-.78-3.12-.59-6.6.52-9.8l.03-.09.09-.16.51-1.22s.12-.23.23-.44l-.18-.16.67-.7c.55-.82,5.59-9.65,10.47-18.2,13.48-23.64,16.01-27.93,16.71-28.79h0c1.16-1.39,2.84-2.11,4.61-1.98,1.81.13,3.4,1.11,4.37,2.68l.03.05c.72,1.36,2.66,4.68,4.71,8.2,2.27,3.89,4.63,7.92,5.48,9.56l.04.07.02.08c.54,1.62.41,3.35-.33,4.65-.59,1.31-1.8,2.07-2.87,2.74-.28.17-.54.34-.77.5-1.47,1.01-3.08,2.51-4.41,4.14-1.04,1.28-3.9,6.31-5.61,9.32-.53.92-.98,1.72-1.26,2.21v.02c-.55.88-.8,2.12-.66,3.33.16,1.01.7,2.09,1.41,2.87,3.96.39,46.67.24,75.16.14l6.43-.02v.99s0-.99,0-.99c22.18-.08,26.54-.07,27.57,0h0c.4,0,.82,0,1.24,0,1.31,0,2.67,0,3.86-.05,4.72-.65,8.59-4.31,9.25-8.66h-.02s.07-.66.07-.66c.48-4.52-2.77-9.11-7.25-10.23h-.03c-1.11-.32-2.28-.63-3.42-.93-2.36-.62-4.79-1.26-7.04-2.02h-.02c-2.71-.99-5.39-2.82-7.53-5.15l-.02-.03c-2.74-3.2-4.39-7.23-4.66-11.36v-.03s0-.03,0-.03c.01-1.89-.03-3.71-.69-5.2l-.02-.05c-1.01-2.64-3.47-4.36-4.86-5.16h-.02c-4.78-2.89-11.06-3-16.01-.3-2.08,1.12-4.07,2.92-5.92,5.34l-.04.05c-1.5,1.74-3.34,3.25-5.31,4.36-3.35,1.81-7,2.66-10.27,2.41h-.07c-2.52-.38-4.45-2.81-4.23-5.34.01-.64.18-1.32.47-1.9l.03-.05c4.91-8.5,16.73-29.14,20.49-37.23.43-1.11,1.29-1.95,2.47-2.44,1.48-.62,3.33-.59,4.83.08l.11.05.1.07c3.66,2.86,40.96,40.4,61,60.57,6.04,6.08,10.41,10.47,11.79,11.84l.07.08c2.26,2.79,3.25,6.55,2.63,10.05-.38,2.33-1.5,4.63-3.16,6.47l-.09.09c-.44.37-1.77,1.71-.76,3.35,1.51,1.53,3.2,3.1,4.84,4.62,1.14,1.05,2.31,2.14,3.39,3.19,1.06,1.02,1.56,2.59,1.28,4.09l-.02.09c-.76,2.68-2.22,4.21-4.48,4.68l-.12.02c-1.06.08-47.95.09-109.13.09-31.26,0-58.25,0-59,.03h-.04Zm-.87-1.99c.3,0,.6,0,.89.02,1.44-.03,26.9-.03,59.02-.03,44.94,0,106.33,0,108.93-.08,1.46-.33,2.35-1.33,2.9-3.22.14-.85-.13-1.71-.72-2.27-1.07-1.04-2.24-2.12-3.37-3.16-1.69-1.56-3.43-3.17-4.99-4.76l-.07-.07-.05-.08c-1.26-1.94-.85-4.32,1.04-5.96,1.38-1.55,2.32-3.47,2.64-5.43.52-2.95-.3-6.09-2.19-8.44-1.43-1.42-5.77-5.79-11.76-11.81-19.84-19.97-56.63-56.99-60.72-60.32-.98-.4-2.21-.41-3.16-.01-.69.29-1.16.74-1.4,1.36l-.03.06c-3.78,8.14-15.63,28.83-20.56,37.38-.15.32-.25.71-.25,1.06v.08c-.15,1.47,1.05,3,2.51,3.23,2.9.22,6.14-.55,9.13-2.17,1.72-.97,3.41-2.36,4.75-3.9,2.01-2.64,4.21-4.61,6.53-5.86,5.54-3.02,12.59-2.9,17.95.33,2.77,1.59,4.79,3.76,5.7,6.14.8,1.83.86,3.86.85,5.95.25,3.69,1.73,7.29,4.17,10.16,1.93,2.1,4.32,3.73,6.73,4.61,2.18.74,4.58,1.37,6.9,1.98,1.14.3,2.32.61,3.44.93,5.18,1.31,8.99,6.46,8.77,11.7l.03.02-.05.63c-.45,5.62-5.1,10.28-11.06,11.07h-.09c-1.25.06-2.64.06-3.99.06-.42,0-.84,0-1.24,0h-.19s-.04-.02-.04-.02c-1.58-.07-17.03-.02-27.34.02l-6.43.02c-16.35.06-34.89.12-49.76.11-8.14,0-14.18-.03-18.48-.08-2.37-.03-4.2-.06-5.43-.1-1.89-.06-2.42-.08-2.74-.5-1.09-1.1-1.87-2.63-2.11-4.13v-.04c-.2-1.66.14-3.34.92-4.6.28-.47.73-1.26,1.24-2.17,1.85-3.26,4.65-8.18,5.8-9.59,1.47-1.79,3.18-3.39,4.82-4.51.27-.19.56-.37.84-.55.88-.55,1.79-1.13,2.13-1.91l.05-.11c.47-.8.55-1.94.21-3.01-.86-1.64-3.17-5.59-5.39-9.4-2.05-3.51-3.98-6.82-4.74-8.24-.63-1.01-1.66-1.64-2.82-1.72-1.14-.08-2.21.38-2.96,1.27l-.08.1c-1.03,1.43-9.91,17-16.42,28.41-8.12,14.23-10.12,17.71-10.62,18.41-.07.15-.16.31-.25.48l-.32.59-.48,1.18-.04.06c-.97,2.82-1.12,5.87-.44,8.58,1.26,4.86,4.73,9.25,9.28,11.72,1.11.58,2.49.57,3.96.55.21,0,.43,0,.65,0Zm-13.87-24.4s0,0-.01.01h.01Z"/></svg>