<svg xmlns="http://www.w3.org/2000/svg" width="54" height="19" fill="none"><g clip-path="url(#clip0_57_1045)"><path d="M31.9797 7.81249e-05L25.7243 19.0001H20.5597L26.5439 0.819453C26.698 0.344453 27.1787 7.81249e-05 27.6779 7.81249e-05H31.9797ZM20.5905 7.42789H0L0.160237 7.62383C0.634786 8.2057 1.36202 8.52633 2.12623 8.52633H20.2331L20.5967 7.42789H20.5905ZM19.1114 11.9166H5.86715L6.02739 12.1126C6.50194 12.6945 7.22917 13.0151 7.99338 13.0151H18.7539L19.1176 11.9166H19.1114ZM19.8509 9.67227H2.93358L3.09381 9.8682C3.56836 10.4501 4.29559 10.7707 5.0598 10.7707H19.4935L19.8571 9.67227H19.8509ZM38.7281 7.81249e-05L41.4337 6.79852L48.8847 7.81249e-05H53.9938L47.7384 19.0001H42.5738L46.2162 7.93258H46.1669L38.9931 14.7726L36.3924 8.12258L32.8117 19.0001H27.8628L33.8532 0.819453C34.0073 0.344453 34.488 7.81249e-05 34.9872 7.81249e-05H38.7281ZM7.61128 14.1551L6.01506 19.0001H11.1796L12.7758 14.1551H7.61128ZM13.1456 7.81249e-05C12.6464 7.81249e-05 12.1657 0.344453 12.0116 0.819453L10.2121 6.27602H15.3766L15.7957 5.00539C15.882 4.75008 16.1408 4.56008 16.412 4.56008H23.1974L24.7012 -0.00585938H13.1518L13.1456 7.81249e-05Z" fill="white"/></g><defs><clipPath id="clip0_57_1045"><rect width="54" height="19" fill="white"/></clipPath></defs></svg>