<svg width="90" height="10" fill="none" xmlns="http://www.w3.org/2000/svg"><path fill-rule="evenodd" clip-rule="evenodd" d="M37.3 0.299988H25.5V2.49999H29.7V9.69999H33.1V2.49999H37.2L37.3 0.299988Z" fill="white"/><path fill-rule="evenodd" clip-rule="evenodd" d="M38.2998 9.69999H41.6998V0.299988H38.2998V9.69999Z" fill="white"/><path fill-rule="evenodd" clip-rule="evenodd" d="M90.0002 0.299988H78.2002V2.49999H82.4002V9.69999H85.8002V2.49999H90.0002V0.299988Z" fill="white"/><path fill-rule="evenodd" clip-rule="evenodd" d="M72.5004 8.19961C74.3004 8.19961 75.2004 6.79961 75.2004 4.99961C75.2004 3.19961 74.2004 1.79961 72.5004 1.79961C70.5004 1.79961 69.8004 3.19961 69.8004 4.99961C69.8004 6.79961 70.6004 8.19961 72.5004 8.19961ZM66.4004 4.99961C66.4004 1.79961 69.2004 0.0996094 72.5004 0.0996094C75.9004 0.0996094 78.6004 1.89961 78.6004 4.99961C78.6004 8.09961 75.8004 9.89961 72.5004 9.89961C69.1004 9.79961 66.4004 8.39961 66.4004 4.99961Z" fill="white"/><path fill-rule="evenodd" clip-rule="evenodd" d="M65.1999 3.4C64.1999 3.4 63.1999 3.4 62.0999 3.4C61.8999 2.9 61.6999 2.49999 61.1999 2.2C60.5999 1.9 59.8999 1.79999 59.1999 1.99999C58.6999 2.1 58.0999 2.49999 58.3999 2.99999C58.4999 3.29999 58.8999 3.49999 59.1999 3.49999C60.8999 3.9 62.5999 3.99999 64.1999 4.79999C64.9999 5.29999 65.3999 5.99999 65.3999 6.69999C65.2999 9.89999 60.8999 10.3 58.0999 9.7C56.1999 9.39999 54.4999 8.2 54.5999 6.39999C55.6999 6.39999 56.6999 6.39999 57.7999 6.39999C57.9999 6.79999 57.8999 7.19999 58.1999 7.49999C58.3999 7.69999 58.5999 7.89999 58.7999 7.99999C58.9999 8.09999 59.1999 8.2 59.3999 8.2C59.8999 8.3 60.4999 8.3 60.9999 8.2C61.3999 8.1 61.6999 7.89999 61.8999 7.49999C61.9999 7.29999 61.9999 7.09999 61.8999 6.89999C61.7999 6.79999 61.7999 6.69999 61.6999 6.59999C61.3999 6.29999 60.9999 6.19999 60.5999 6.09999C58.6999 5.59999 56.2999 5.79999 55.1999 4.09999C54.8999 3.59999 54.8999 3 54.9999 2.4C55.0999 2 55.3999 1.6 55.6999 1.39999C55.9999 1.19999 56.2999 0.899995 56.7999 0.699995C58.7999 -0.100005 61.0999 -5.00679e-06 62.9999 0.699995C64.1999 1.2 65.0999 2.2 65.1999 3.4Z" fill="white"/><path fill-rule="evenodd" clip-rule="evenodd" d="M53.4997 3.29999C52.4997 3.29999 51.4997 3.29999 50.3997 3.29999C50.1997 2.79999 49.9997 2.39999 49.4997 2.09999C48.8997 1.79999 48.1997 1.69999 47.4997 1.89999C46.9997 1.99999 46.3997 2.4 46.6997 2.9C46.7997 3.2 47.1997 3.4 47.4997 3.4C49.1997 3.8 50.8997 3.89999 52.4997 4.69999C53.2997 5.09999 53.6997 5.79999 53.6997 6.59999C53.5997 9.79999 49.1997 10.2 46.3997 9.6C44.4997 9.3 42.7997 8.09999 42.8997 6.29999C43.9997 6.29999 44.9997 6.29999 46.0997 6.29999C46.2997 6.7 46.1997 7.09999 46.4997 7.39999C46.6997 7.59999 46.8997 7.79999 47.0997 7.89999C47.2997 7.99999 47.4997 8.1 47.6997 8.1C48.1997 8.2 48.7997 8.2 49.2997 8.1C49.6997 8 49.9997 7.79999 50.1997 7.39999C50.2997 7.2 50.2997 6.99999 50.1997 6.79999C50.0997 6.79999 49.9997 6.69999 49.9997 6.59999C49.6997 6.29999 49.2997 6.19999 48.8997 6.09999C46.9997 5.59999 44.4997 5.79999 43.4997 4.09999C43.1997 3.59999 43.1997 3 43.2997 2.4C43.3997 2 43.6997 1.6 43.9997 1.39999C44.2997 1.19999 44.5997 0.899995 45.0997 0.699995C47.0997 -0.100005 49.3997 -5.00679e-06 51.2997 0.699995C52.4997 1.2 53.3997 2.09999 53.4997 3.29999Z" fill="white"/><path fill-rule="evenodd" clip-rule="evenodd" d="M0 10H11.3V0H0V10Z" fill="#FFFFFE"/><path fill-rule="evenodd" clip-rule="evenodd" d="M12.2998 10H23.5998V0H12.2998V10Z" fill="#FFFFFE"/><path fill-rule="evenodd" clip-rule="evenodd" d="M0.299805 9.69999H10.8998V0.299988H0.299805V9.69999Z" fill="black"/><path fill-rule="evenodd" clip-rule="evenodd" d="M12.5996 9.69999H23.1996V0.299988H12.5996V9.69999Z" fill="#E32119"/><path fill-rule="evenodd" clip-rule="evenodd" d="M21.9 4H19.1V1.5H16.8V4H14V6H16.8V8.5H19.1V6H21.9V4Z" fill="#FFFFFE"/><path fill-rule="evenodd" clip-rule="evenodd" d="M9.6002 1.5H1.7002V3.1H4.4002V8.4H6.8002V3.1H9.5002L9.6002 1.5Z" fill="#FFFFFE"/></svg>