<svg width="182" height="60" fill="none" xmlns="http://www.w3.org/2000/svg"><g opacity="0.2"><path d="M135.981 60.2216H166.658L151.322 77H120.644L135.981 60.2216Z" fill="url(#paint0_linear_3960_2026)"/><path d="M120.644 43.4433H151.322L135.981 60.2216H105.303L120.644 43.4433Z" fill="url(#paint1_linear_3960_2026)"/><path d="M105.303 26.665H135.981L120.644 43.4433L89.961 43.4433L105.303 26.665Z" fill="url(#paint2_linear_3960_2026)"/><path d="M89.961 9.8866H120.644L105.303 26.665L74.6246 26.6649L89.961 9.8866Z" fill="url(#paint3_linear_3960_2026)"/><path d="M74.6246 -6.89174H105.303L89.961 9.8866L59.2831 9.88661L74.6246 -6.89174Z" fill="url(#paint4_linear_3960_2026)"/><path d="M15.3416 -6.89169H46.0195L30.6779 9.88666H0L15.3416 -6.89169Z" fill="url(#paint5_linear_3960_2026)"/><path d="M135.981 -6.89174H166.658L151.322 9.88661L120.644 9.8866L135.981 -6.89174Z" fill="url(#paint6_linear_3960_2026)"/><path d="M151.322 9.88661L182 9.8866L166.658 26.6649L135.981 26.665L151.322 9.88661Z" fill="url(#paint7_linear_3960_2026)"/><path d="M74.6246 60.2216H105.303L89.961 77H59.2831L74.6246 60.2216Z" fill="url(#paint8_linear_3960_2026)"/><path d="M59.2831 43.4433L89.961 43.4433L74.6246 60.2216H43.9415L59.2831 43.4433Z" fill="url(#paint9_linear_3960_2026)"/><path d="M43.9415 26.665L74.6246 26.6649L59.2831 43.4433L28.6052 43.4433L43.9415 26.665Z" fill="url(#paint10_linear_3960_2026)"/><path d="M107.98 -40.4433H138.658L123.322 -23.665H92.6386L107.98 -40.4433Z" fill="url(#paint11_linear_3960_2026)"/><path d="M92.6386 -57.2217H123.322L107.98 -40.4433H77.3022L92.6386 -57.2217Z" fill="url(#paint12_linear_3960_2026)"/><path d="M138.658 -74H169.341L154 -57.2217H123.322L138.658 -74Z" fill="url(#paint13_linear_3960_2026)"/></g><defs><linearGradient id="paint0_linear_3960_2026" x1="4.57286" y1="-21.6958" x2="176.212" y2="32.47" gradientUnits="userSpaceOnUse"><stop stop-color="#E90D0D"/><stop offset="1" stop-color="#E90D0D" stop-opacity="0"/></linearGradient><linearGradient id="paint1_linear_3960_2026" x1="4.57286" y1="-21.6958" x2="176.212" y2="32.47" gradientUnits="userSpaceOnUse"><stop stop-color="#E90D0D"/><stop offset="1" stop-color="#E90D0D" stop-opacity="0"/></linearGradient><linearGradient id="paint2_linear_3960_2026" x1="4.57286" y1="-21.6958" x2="176.212" y2="32.47" gradientUnits="userSpaceOnUse"><stop stop-color="#E90D0D"/><stop offset="1" stop-color="#E90D0D" stop-opacity="0"/></linearGradient><linearGradient id="paint3_linear_3960_2026" x1="4.57286" y1="-21.6958" x2="176.212" y2="32.47" gradientUnits="userSpaceOnUse"><stop stop-color="#E90D0D"/><stop offset="1" stop-color="#E90D0D" stop-opacity="0"/></linearGradient><linearGradient id="paint4_linear_3960_2026" x1="4.57286" y1="-21.6958" x2="176.212" y2="32.47" gradientUnits="userSpaceOnUse"><stop stop-color="#E90D0D"/><stop offset="1" stop-color="#E90D0D" stop-opacity="0"/></linearGradient><linearGradient id="paint5_linear_3960_2026" x1="4.57286" y1="-21.6958" x2="176.212" y2="32.47" gradientUnits="userSpaceOnUse"><stop stop-color="#E90D0D"/><stop offset="1" stop-color="#E90D0D" stop-opacity="0"/></linearGradient><linearGradient id="paint6_linear_3960_2026" x1="4.57286" y1="-21.6958" x2="176.212" y2="32.47" gradientUnits="userSpaceOnUse"><stop stop-color="#E90D0D"/><stop offset="1" stop-color="#E90D0D" stop-opacity="0"/></linearGradient><linearGradient id="paint7_linear_3960_2026" x1="4.57286" y1="-21.6958" x2="176.212" y2="32.47" gradientUnits="userSpaceOnUse"><stop stop-color="#E90D0D"/><stop offset="1" stop-color="#E90D0D" stop-opacity="0"/></linearGradient><linearGradient id="paint8_linear_3960_2026" x1="4.57286" y1="-21.6958" x2="176.212" y2="32.47" gradientUnits="userSpaceOnUse"><stop stop-color="#E90D0D"/><stop offset="1" stop-color="#E90D0D" stop-opacity="0"/></linearGradient><linearGradient id="paint9_linear_3960_2026" x1="4.57286" y1="-21.6958" x2="176.212" y2="32.47" gradientUnits="userSpaceOnUse"><stop stop-color="#E90D0D"/><stop offset="1" stop-color="#E90D0D" stop-opacity="0"/></linearGradient><linearGradient id="paint10_linear_3960_2026" x1="4.57286" y1="-21.6958" x2="176.212" y2="32.47" gradientUnits="userSpaceOnUse"><stop stop-color="#E90D0D"/><stop offset="1" stop-color="#E90D0D" stop-opacity="0"/></linearGradient><linearGradient id="paint11_linear_3960_2026" x1="4.57286" y1="-21.6958" x2="176.212" y2="32.47" gradientUnits="userSpaceOnUse"><stop stop-color="#E90D0D"/><stop offset="1" stop-color="#E90D0D" stop-opacity="0"/></linearGradient><linearGradient id="paint12_linear_3960_2026" x1="4.57286" y1="-21.6958" x2="176.212" y2="32.47" gradientUnits="userSpaceOnUse"><stop stop-color="#E90D0D"/><stop offset="1" stop-color="#E90D0D" stop-opacity="0"/></linearGradient><linearGradient id="paint13_linear_3960_2026" x1="4.57286" y1="-21.6958" x2="176.212" y2="32.47" gradientUnits="userSpaceOnUse"><stop stop-color="#E90D0D"/><stop offset="1" stop-color="#E90D0D" stop-opacity="0"/></linearGradient></defs></svg>