<svg id="flags" xmlns="http://www.w3.org/2000/svg" viewBox="0 0 162 116"><defs><style>.cls-1{fill:#fcdd09;}.cls-2{fill:#da121a;}.cls-3{fill:#fbea0e;}.cls-10,.cls-35,.cls-36,.cls-37,.cls-4,.cls-6{fill:#eac102;}.cls-10,.cls-12,.cls-13,.cls-14,.cls-15,.cls-16,.cls-17,.cls-18,.cls-19,.cls-20,.cls-21,.cls-23,.cls-24,.cls-25,.cls-26,.cls-27,.cls-28,.cls-29,.cls-30,.cls-31,.cls-32,.cls-33,.cls-34,.cls-35,.cls-36,.cls-37,.cls-38,.cls-39,.cls-4,.cls-40,.cls-41,.cls-42,.cls-43,.cls-44,.cls-48,.cls-49,.cls-5,.cls-50,.cls-6,.cls-7,.cls-8,.cls-9{stroke:#000;}.cls-4{stroke-width:0.05px;}.cls-5{fill:#0071bc;stroke-width:0.05px;}.cls-40,.cls-47,.cls-49,.cls-6{stroke-width:0.05px;}.cls-15,.cls-50,.cls-7{fill:#e3e4e5;}.cls-7{stroke-width:0.05px;}.cls-21,.cls-27,.cls-29,.cls-38,.cls-40,.cls-8,.cls-9{fill:#999;}.cls-8{stroke-width:0.06px;}.cls-9{stroke-width:0.32px;}.cls-10,.cls-20,.cls-42,.cls-46,.cls-48{stroke-width:0.04px;}.cls-11,.cls-12,.cls-16,.cls-17,.cls-18,.cls-19,.cls-42,.cls-43,.cls-44{fill:#008f4c;}.cls-12{stroke-width:0.04px;}.cls-13{fill:#784421;stroke-width:0.04px;}.cls-14,.cls-45,.cls-48{fill:#ed1c24;}.cls-14{stroke-linejoin:round;stroke-width:0.05px;}.cls-15{stroke-width:0.11px;}.cls-16,.cls-17,.cls-18,.cls-19{stroke-linecap:square;}.cls-16{stroke-width:0.04px;}.cls-17{stroke-width:0.04px;}.cls-18{stroke-width:0.04px;}.cls-19{stroke-width:0.04px;}.cls-20{fill:#e4d8cc;}.cls-21{stroke-width:0.03px;}.cls-22,.cls-23,.cls-24,.cls-25,.cls-28,.cls-30,.cls-31,.cls-32,.cls-33,.cls-34,.cls-39,.cls-41,.cls-46,.cls-47,.cls-49{fill:none;}.cls-22{stroke:#010101;stroke-miterlimit:4.1;stroke-width:0.03px;}.cls-22,.cls-23,.cls-25,.cls-39{stroke-linecap:round;}.cls-23,.cls-24{stroke-width:0.03px;}.cls-25{stroke-width:0.03px;}.cls-26{stroke-width:0.04px;}.cls-27,.cls-31{stroke-width:0.03px;}.cls-28,.cls-50{stroke-width:0.04px;}.cls-29,.cls-30{stroke-width:0.06px;}.cls-32{stroke-width:0.04px;}.cls-33{stroke-width:0.04px;}.cls-34{stroke-width:0.04px;}.cls-35{stroke-width:0.06px;}.cls-36{stroke-width:0.04px;}.cls-37{stroke-width:0.04px;}.cls-38{stroke-width:0px;}.cls-39{stroke-width:0.03px;}.cls-41{stroke-width:0.04px;}.cls-43{stroke-width:0.04px;}.cls-44{stroke-width:0.03px;}.cls-46,.cls-47{stroke:#2d3235;}</style></defs><title>ara</title><g id="aragon"><rect id="rect1933" class="cls-1" y="4.33" width="162" height="108"/><rect id="rect1935" class="cls-2" y="88.33" width="162" height="12"/><rect id="rect1937" class="cls-3" y="76.33" width="162" height="12"/><rect id="rect1939" class="cls-2" y="64.33" width="162" height="12"/><rect id="rect1941" class="cls-3" y="52.33" width="162" height="12"/><rect id="rect1943" class="cls-2" y="40.33" width="162" height="12"/><rect id="rect1945" class="cls-3" y="28.33" width="162" height="12"/><rect id="rect1947" class="cls-2" y="16.33" width="162" height="12"/><g id="g8765"><path id="path3435" class="cls-4" d="M36.06,64.13,36,46H52.18l0,18.22"/><path id="path1763" class="cls-5" d="M52.14,64.13l0-18.18H68.17l0,18.22"/><path id="path1765" class="cls-6" d="M36.05,64.07l32.16.07s.07,6.84-.14,9.2c0,2.75-3.38,15.1-16.27,15.1-13.11.07-15.73-11.12-15.75-15.75C36,71.25,36.05,64.07,36.05,64.07Z"/><path id="path1767" class="cls-7" d="M52.13,88.43a15.53,15.53,0,0,1-7.54-1.36,13.69,13.69,0,0,1-4.09-2.89A18,18,0,0,1,38,80.64a9.17,9.17,0,0,1-.55-1.24,18.56,18.56,0,0,1-1.36-6c-.08-3.7,0-7.84,0-9.31l16.07,0"/><path id="path1684" class="cls-8" d="M50.42,85.86c-.16-.06-.13-.43,0-.41.3,0,.26.4.28.49S50.52,85.92,50.42,85.86Z"/><path id="path1675" class="cls-8" d="M49,84.87c-.1-.1-.32.07-.43-.09s.62-1,.67-1.11.06-.53.09-.62a3.79,3.79,0,0,1,.59-.68,4.12,4.12,0,0,1,.52.31c.06.29-.29.73-.3.82a1.45,1.45,0,0,1-.43.67C49.51,84.41,49.2,84.59,49,84.87Z"/><g id="g1661"><path id="path1663" class="cls-9" d="M49.84,79.26a.9.9,0,0,1,.1.35.47.47,0,0,0,.26.43c.15.06.29.15.31.27s0,.29,0,.29l.28-.32s0-.16,0-.3-.12-.25-.25-.32-.29-.15-.33-.24a1.12,1.12,0,0,0-.19-.29c0-.06-.24.13-.24.13Z"/><path id="path1665" class="cls-9" d="M49.92,80.94a3.15,3.15,0,0,1,.12.84c.13,0,.31-.31.48-.4a1.46,1.46,0,0,1,.16-.5c.3-.35.15-.58.15-.58-.29.27-.33.48-.91.64Z"/></g><path id="path5136" class="cls-10" d="M35.13,39.38c-.46,0-.47,1.68.3,1.65.38,0,8.48-.82,16.67-.81s16.85.6,17,.58c.34,0,.68-1.43.41-1.45,0,0-2.47,2.1-4.47-.28-1.95,1.42-2.64.92-4.34-.09-1.84.84-2.2,1.32-4.26-.19-2.19,1.27-2.59,1.16-4.39-.18a2.85,2.85,0,0,1-4,.2c-2.13,1.29-3.06,1.11-4.59.2-1.92,1-2.14,1.36-4.21,0C36.93,41.29,35.23,39.38,35.13,39.38Z"/><path id="path1635" class="cls-10" d="M35.38,40.78c-.46,0-.69.59.08.57.38,0,8.51-.68,16.71-.67s16.74.67,16.93.66c.34,0,.36-.54.08-.55S60.6,40,52.16,40C43.88,40,35.61,40.78,35.38,40.78Z"/><path id="path15218" class="cls-11" d="M44.21,50.75a18,18,0,0,0-4.08-.36c-2,0-2.25,2.39-1.39,3,.31.2,1.51.5,2.39.91s1.21.85,1.69.76a4.31,4.31,0,0,1,1.85-.1,4.9,4.9,0,0,0,3.69-1,7.42,7.42,0,0,0-.11-2.52c-.08-.24-.91-.52-1.19-.64A4.75,4.75,0,0,0,44.21,50.75Z"/><path id="path15324" class="cls-12" d="M44.38,52.76a3.59,3.59,0,0,0-.73,0c-.23,0-.22.28-.18.4s.57.15.69.13.24-.17.36-.31S44.57,52.87,44.38,52.76Z"/><path id="path1778" class="cls-13" d="M43.66,54.83l.71-1.08s.14,2.71.14,4.07-.25,1.43,0,2.41a1.19,1.19,0,0,0,.67.87c.63.25,1.65.28,2.26.58s.7.84.57,1a1.55,1.55,0,0,0-.85-.52,5.44,5.44,0,0,0-.85,0c-.18,0-.16.28-.06.72a2.47,2.47,0,0,0-1.37-.66c-.15.06.1.74.09,1a1,1,0,0,0-.6-.58c-.09,0-.24.62-.31.7-.16-.17-.18-.88-.26-.88s-.31.07-.91.55c0-.42.32-.9.17-.9a9.35,9.35,0,0,0-1.19.75c0-.33.45-.74.29-.73a2.26,2.26,0,0,0-.64,0,9.69,9.69,0,0,0-1.45.5c0-.26.48-.69.86-.88s.89-.08,1.46-.45.69-.83.89-2-.28-1-.15-2.41A4.22,4.22,0,0,1,43.66,54.83Z"/><path id="path5138" class="cls-10" d="M35.24,41.33a16.28,16.28,0,0,0,.78,4c1.39.07,9.38-.56,16.37-.55,8.34,0,15.58.49,15.77.48.35,0,1.12-4,.85-4s-8.05-.7-16.49-.7C44.25,40.6,35.47,41.34,35.24,41.33Z"/><path id="path1781" class="cls-14" d="M42.71,42.73a.94.94,0,1,1,.93.87A.9.9,0,0,1,42.71,42.73Z"/><path id="path1783" class="cls-15" d="M54.9,48.31H57l-.22,2.14,2-.54v2.56l-2-.53s0,1.62.08,2.5.15,1,.15,1l-.63-.15-.38,2.55-.42-2.56-.62.16a2.66,2.66,0,0,0,.17-1c.07-.85.17-2.47.17-2.47l-1.88.58V49.92l1.75.52Z"/><path id="use4298" class="cls-14" d="M51.27,42.41a.94.94,0,1,1,.93.87A.9.9,0,0,1,51.27,42.41Z"/><path id="use4300" class="cls-14" d="M59.69,42.52a.94.94,0,1,1,.94.87A.9.9,0,0,1,59.69,42.52Z"/><rect id="rect4312" class="cls-16" x="38.65" y="42.13" width="1.48" height="1.48" transform="translate(-18.69 46.83) rotate(-51.32)"/><rect id="rect5187" class="cls-17" x="64.1" y="42.07" width="1.48" height="1.48" transform="translate(-12.3 52.08) rotate(-40.29)"/><rect id="rect5189" class="cls-18" x="55.67" y="41.73" width="1.48" height="1.48" transform="translate(-13.99 47.84) rotate(-41.34)"/><rect id="rect5191" class="cls-19" x="47.13" y="41.73" width="1.48" height="1.48" transform="translate(-15.95 47.09) rotate(-45.72)"/><path id="path1600" class="cls-20" d="M38.56,69.59c-.09-.15-.17-.62-.27-.85a3.57,3.57,0,0,1-1-.19c-.35-.21.13-.64.09-.8a.65.65,0,0,1-.11-.12.25.25,0,0,1,.09-.19h0c-.05,0-.13-.25.1-.24a.24.24,0,0,0,.13-.13L37.47,67c-.19-.11-.1-.22,0-.32s.37-.28.53-.37a.12.12,0,0,0,.09-.13.44.44,0,0,1,.12-.22c.06,0,.27-.21.25-.25a.21.21,0,0,1,.07-.15.24.24,0,0,0,.06-.08.1.1,0,0,1,.08-.06s.1-.06.09-.09.09-.14.12-.14a.19.19,0,0,0,.17,0,.47.47,0,0,1,.25-.18l.16-.06a.45.45,0,0,1,.21,0,2.12,2.12,0,0,0,.27,0l.23,0,.16,0a2.92,2.92,0,0,1,.31.13.69.69,0,0,1,.23.09c.13.08.25.22.31.23s.07.09.07.09a.46.46,0,0,0,.13.15l.12.15s.11.12.16.19l.18.34a.2.2,0,0,1,.06.19L42,67a.32.32,0,0,0,0,.09l0,.23,0,.07s-.06.26-.18.3,0,.11-.13.2-.29.16-.26.19,0,0-.07,0-.09,0-.09,0,0,.15-.1.14-.26.13-.26.21l-.2.08s0,0,0,.09a.37.37,0,0,1-.07.25s0,.54,0,.56A9.69,9.69,0,0,0,38.56,69.59Z"/><path id="path1673" d="M40,68.34c-.27-.22.57-.73.59-.64s.55.42.54.46-.16.17-.45.61C40.55,68.84,40.34,68.6,40,68.34Z"/><path id="path9583" d="M38.64,65.44c.11,0,.06,0,.15-.08s0-.06.06-.11a2.32,2.32,0,0,1,.65-.32,1.44,1.44,0,0,1,.68,0,2,2,0,0,1,.68.25,1.5,1.5,0,0,1,.36.26,5.47,5.47,0,0,1,.4.46l.29.54c.06.1,0,.28,0,.4a1,1,0,0,1-.06.59c-.07.17-.08.24-.14.26-.06.26-.4.34-.55.43h-.09a2.94,2.94,0,0,0-.35-.44c-.26-.28-.33-.58-.67-.69a13.8,13.8,0,0,0-1.47-1.15c-.17-.17-.12-.11-.1-.21Z"/><path id="path1602" class="cls-21" d="M39,65.23c-.09,0-.15,0-.12.11a1.09,1.09,0,0,0,.08.19s-.13-.13-.18-.09-.14.07-.1.11l.14.18-.17-.13a.2.2,0,0,0,0,.29c.1.12.41.48.46.55a1,1,0,0,0,.27.24,2.4,2.4,0,0,1,.31.19l-.2-.05a1.63,1.63,0,0,0,.35.35c.07-.06.66-.2.63.37a1.52,1.52,0,0,0,0,.19s.12.06.14.13.14.14.21.17l.17,0s.11.12.15.16.17-.09.05-.28a3.29,3.29,0,0,1-.21-.42,2.93,2.93,0,0,0-.33-.52c0-.06,0-.09-.08-.15s-.2-.23-.27-.31a.76.76,0,0,0-.23-.17,4.21,4.21,0,0,1-.74-.73c-.09-.1.47.47.55.52s.17.09,0-.14a5.67,5.67,0,0,0-.68-.89Z"/><path id="path1604" class="cls-22" d="M40,67.48s0,0,0,0a.06.06,0,0,1,0,0l0,0,0,0h-.13a0,0,0,0,0,0,0s0,0,0,0l0,0s0,0,0,0l0,0s0,0,0,0l0,0"/><path id="path1606" d="M39.82,67.3c.13-.07.66,0,.34.29,0,0,0,.07,0,0,.36-.39-.21-.46-.35-.38s0,0,0,0Z"/><path id="path1608" class="cls-23" d="M38.67,65.8a.84.84,0,0,1,.4.34.76.76,0,0,0,.33.31l.2.12h0"/><path id="path1610" class="cls-24" d="M40.48,67.12a1.79,1.79,0,0,1,.31.44c.07.13.11.16.17.28A1,1,0,0,1,41,68c0,.08-.16-.33-.39-.4s-.09,0-.12-.17a.87.87,0,0,0-.16-.34l-.25-.31"/><path id="path1612" class="cls-25" d="M39.46,67.84s.06.11.08.13a.14.14,0,0,0,.12,0c.11,0,.28-.18.38-.21a.5.5,0,0,0,.32-.07"/><path id="path1614" class="cls-26" d="M38.46,66.3a1,1,0,0,0,.28.47s-.35-.11-.5-.1a.58.58,0,0,1,.06-.2A.9.9,0,0,1,38.46,66.3Z"/><g id="g1624"><g id="g1628"><g id="g1632"><path id="path1634" class="cls-9" d="M41,68.38a1.29,1.29,0,0,1,0,.36.45.45,0,0,0,.07.49c.12.12.21.25.18.37s-.08.28-.08.28l.39-.19s.07-.14.14-.26,0-.28-.11-.4a.72.72,0,0,1-.21-.34,1.35,1.35,0,0,0-.06-.35c0-.07-.27,0-.27,0Z"/><path id="path1636" class="cls-9" d="M38.47,70.4a2.68,2.68,0,0,1,.14,1.15c.18-.11,1-.36,1.24-.44a5.88,5.88,0,0,0,1.3-.92c.4-.2.35-.48.35-.48a10.62,10.62,0,0,1-1.08.46l-.66.21-.55.06Z"/><path id="path1638" class="cls-9" d="M38.08,70.93a.8.8,0,0,0,.12.56c.12.07.26.18.38.08a.94.94,0,0,0,.05-.46.73.73,0,0,0-.05-.26Z"/></g><path id="path1630" class="cls-9" d="M42.48,68.58c-.12-.32-.59-.32-1-.38a.7.7,0,0,1-.14-.09l-.06.19c.06.24.19.18.36.38a2.06,2.06,0,0,1,0,1.66c-.29.38-1.58.52-1.92.56a2.32,2.32,0,0,1,.37,1,3.22,3.22,0,0,0,1.81-.64,3.91,3.91,0,0,0,.35-.71A3.4,3.4,0,0,0,42.48,68.58Z"/></g></g><path id="path1640" class="cls-27" d="M41.17,68.1c0-.08,0-.06.09,0s-.1.25-.24.22-.07-.1,0-.09.11-.14.11-.14h0Z"/><path id="path1642" class="cls-28" d="M41.37,69.57h0s0,0,0,0a1.39,1.39,0,0,0-.06.13l-.06.08"/><path id="path1644" class="cls-28" d="M41.29,69.58h0s0,0,0,0l-.05.11-.07.11"/><path id="path1646" class="cls-28" d="M39.46,71.1h0s0,0,0,.06l-.06.08"/><path id="path1648" class="cls-28" d="M39.35,71.13h0a1.33,1.33,0,0,1-.06.12s0,0,0,0"/><path id="path1650" class="cls-28" d="M39.24,71.12a.84.84,0,0,1-.06.14l0,0"/><path id="path1652" class="cls-28" d="M39.13,71.16h0s0,0,0,0a.47.47,0,0,1,0,.1.55.55,0,0,1-.06.08"/><path id="path1654" class="cls-28" d="M39,71.22a.28.28,0,0,1,0,.08l0,.08a.22.22,0,0,1-.06.07v0"/><path id="path1656" class="cls-28" d="M41.43,69.61s0,.07,0,.09l0,0"/><path id="path1658" class="cls-29" d="M41.31,68.19a.74.74,0,0,0,.39.14l.11,0"/><path id="path1660" class="cls-30" d="M41.29,68.23a.75.75,0,0,0,.36.2h.11"/><path id="path1662" class="cls-31" d="M41.23,68.33a.41.41,0,0,1,0,.19l0,.07"/><path id="path1664" class="cls-31" d="M41.16,68.33a.56.56,0,0,1,0,.22l0,.08"/><path id="path1666" class="cls-30" d="M41.1,68.35a1.3,1.3,0,0,0-.05.47l0,.1"/><path id="path1668" class="cls-32" d="M38.53,71.2a.44.44,0,0,1-.09-.18v0"/><path id="path1670" class="cls-32" d="M38.43,71.22a.62.62,0,0,1-.1-.2v0"/><path id="path1672" class="cls-33" d="M38.35,71.3a.71.71,0,0,1-.11-.21v0"/><path id="path1674" class="cls-31" d="M41.78,71.23a.58.58,0,0,0,.13-.2l0-.07"/><path id="path1676" class="cls-31" d="M41.4,68.42a.38.38,0,0,0,.11.08h0"/><path id="path1678" class="cls-34" d="M42.17,68.56a1.73,1.73,0,0,1,.12.69v.06"/><path id="path1843" class="cls-10" d="M39.52,35.2a.8.8,0,0,0-.78,0c-.13-.2-.91-1.11-1.22-1.43,0-.48,1-1.23,1.51-1.22a1.85,1.85,0,0,1,1.61,1.23C40.23,34.29,39.69,35,39.52,35.2Z"/><path id="path2718" class="cls-10" d="M38.75,36.22c.41.2.48.12.8,0,.13.2.85,1,1.16,1.38a1.77,1.77,0,0,1-1.4,1.09,1.75,1.75,0,0,1-1.6-1.09C38.12,37.09,38.59,36.47,38.75,36.22Z"/><path id="path2720" class="cls-10" d="M39.55,36.18a.82.82,0,0,0,0-1,10.31,10.31,0,0,1,1.11-1.39c.26.08.66,1,.63,1.77a2.85,2.85,0,0,1-.56,2C40.25,37.13,39.78,36.41,39.55,36.18Z"/><path id="path2722" class="cls-10" d="M38.75,35.2a.88.88,0,0,0,0,1,9.16,9.16,0,0,1-1,1.36c-.26-.07-.69-1-.68-1.75a2.85,2.85,0,0,1,.51-2C38,34.24,38.52,35,38.75,35.2Z"/><path id="path2724" class="cls-35" d="M39.49,36.48A.82.82,0,0,1,38.43,36a.77.77,0,0,1,.46-1,.83.83,0,0,1,1.06.44.77.77,0,0,1-.45,1"/><path id="path2735" class="cls-10" d="M48.16,34.86a.79.79,0,0,0-.79,0c-.13-.2-.91-1.11-1.22-1.44a2.07,2.07,0,0,1,1.51-1.22,1.87,1.87,0,0,1,1.61,1.24C48.86,34,48.32,34.61,48.16,34.86Z"/><path id="path2737" class="cls-10" d="M47.38,35.88c.42.2.48.12.8,0,.13.19.85,1,1.16,1.37A1.77,1.77,0,0,1,48,38.33a1.75,1.75,0,0,1-1.61-1.09C46.75,36.75,47.22,36.13,47.38,35.88Z"/><path id="path2739" class="cls-10" d="M48.18,35.84a.83.83,0,0,0,0-1,10.46,10.46,0,0,1,1.12-1.38c.25.07.65,1,.62,1.77a2.85,2.85,0,0,1-.56,2C48.88,36.79,48.41,36.06,48.18,35.84Z"/><path id="path2741" class="cls-10" d="M47.39,34.86a.86.86,0,0,0,0,1,9,9,0,0,1-1,1.36c-.26-.07-.69-1-.68-1.75a2.9,2.9,0,0,1,.51-2C46.63,33.9,47.15,34.64,47.39,34.86Z"/><path id="path2743" class="cls-35" d="M48.13,36.14a.84.84,0,0,1-1.07-.44.78.78,0,0,1,.46-1,.82.82,0,0,1,1.06.44.77.77,0,0,1-.45,1"/><path id="path2747" class="cls-36" d="M56.87,34.87a.83.83,0,0,0-.79,0c-.12-.2-.86-1.15-1.15-1.49a2,2,0,0,1,1.56-1.15A1.84,1.84,0,0,1,58,33.52C57.61,34,57,34.63,56.87,34.87Z"/><path id="path2749" class="cls-36" d="M56.05,35.86c.41.22.47.14.8,0,.12.2.81,1.09,1.1,1.43a1.77,1.77,0,0,1-1.44,1A1.75,1.75,0,0,1,55,37.18C55.38,36.7,55.88,36.1,56.05,35.86Z"/><path id="path2751" class="cls-36" d="M56.85,35.85a.82.82,0,0,0,0-1,9.18,9.18,0,0,1,1.17-1.33c.25.08.61,1,.55,1.79a2.93,2.93,0,0,1-.65,2C57.51,36.83,57.07,36.09,56.85,35.85Z"/><path id="path2753" class="cls-36" d="M56.1,34.84a.87.87,0,0,0-.07,1,9.3,9.3,0,0,1-1.1,1.31c-.26-.08-.64-1-.6-1.78a2.93,2.93,0,0,1,.59-2C55.39,33.85,55.87,34.61,56.1,34.84Z"/><path id="path2755" class="cls-35" d="M56.76,36.18a.83.83,0,0,1-1-.49.77.77,0,0,1,.5-1,.83.83,0,0,1,1,.49.78.78,0,0,1-.49,1"/><path id="path2759" class="cls-37" d="M65.61,35.2a.8.8,0,0,0-.78-.06c-.11-.2-.82-1.18-1.1-1.52a2,2,0,0,1,1.6-1.1,1.84,1.84,0,0,1,1.5,1.36C66.39,34.34,65.79,35,65.61,35.2Z"/><path id="path2761" class="cls-37" d="M64.76,36.15c.4.23.47.16.8,0,.11.21.77,1.12,1,1.47a1.79,1.79,0,0,1-1.48,1c-.36,0-1.38-.39-1.51-1.21C64.07,37,64.58,36.39,64.76,36.15Z"/><path id="path2763" class="cls-37" d="M65.56,36.17a.83.83,0,0,0,.07-1,10.65,10.65,0,0,1,1.22-1.29c.25.09.57,1.06.48,1.81a2.86,2.86,0,0,1-.71,1.93C66.19,37.17,65.77,36.42,65.56,36.17Z"/><path id="path2765" class="cls-37" d="M64.84,35.14a.88.88,0,0,0-.1,1A8.75,8.75,0,0,1,63.6,37.4c-.26-.08-.61-1-.54-1.8a2.84,2.84,0,0,1,.66-1.94C64.17,34.12,64.62,34.9,64.84,35.14Z"/><path id="path2767" class="cls-35" d="M65.44,36.51a.82.82,0,0,1-1-.52A.77.77,0,0,1,65,35a.83.83,0,0,1,1,.52.78.78,0,0,1-.53,1"/><path id="path5414" class="cls-10" d="M42.78,33.31c.39,0,.66,0,1,0a1.32,1.32,0,0,1,1.06.7,2.1,2.1,0,0,1,.7.47,6.76,6.76,0,0,1-.24,2,.7.7,0,0,1-.41.31,2.35,2.35,0,0,1-1.51,2,2,2,0,0,1-1.5-2.05.66.66,0,0,1-.43-.46,7.9,7.9,0,0,1-.28-1.86c.34-.28.49-.22.7-.38C42.2,33.65,42.46,33.32,42.78,33.31Z"/><path id="path2781" class="cls-10" d="M44.92,30.22c-.33.26-1,.85-1,1.32a9.45,9.45,0,0,0,0,1.08c0,.4.21,1.36.21,1.63s0,.62.06.92a.92.92,0,0,1-.32.81,1,1,0,0,1-1,0c-.22-.17-.26-.55-.3-.82a5.32,5.32,0,0,1,0-.79,14.59,14.59,0,0,1,.22-1.71,4.8,4.8,0,0,0,0-1.07c0-.48-.5-.83-1.07-1.27a1.56,1.56,0,0,1,.76-.46,2.81,2.81,0,0,1,.83-1.15,2.3,2.3,0,0,1,.71,1.16A1.59,1.59,0,0,1,44.92,30.22Z"/><path id="path6289" class="cls-10" d="M51.44,33.1l1,0a1.37,1.37,0,0,1,1.07.7,2.14,2.14,0,0,1,.7.48A6.56,6.56,0,0,1,54,36.31a.67.67,0,0,1-.4.3,2.35,2.35,0,0,1-1.51,2,2,2,0,0,1-1.51-2.05.66.66,0,0,1-.42-.46,7.34,7.34,0,0,1-.28-1.85c.34-.29.49-.23.69-.39C50.85,33.44,51.11,33.11,51.44,33.1Z"/><path id="path5402" class="cls-10" d="M53.55,29.92c-.33.26-1,.84-1,1.31a9.36,9.36,0,0,0,0,1.08c0,.41.21,1.36.21,1.64s0,.62.06.92a.92.92,0,0,1-.33.81,1,1,0,0,1-1,0,1.29,1.29,0,0,1-.31-.81,7,7,0,0,1,0-.79,15,15,0,0,1,.22-1.72,4.26,4.26,0,0,0,0-1.07c0-.47-.5-.82-1.06-1.26a1.6,1.6,0,0,1,.76-.47A2.78,2.78,0,0,1,52,28.38a2.26,2.26,0,0,1,.71,1.16A1.58,1.58,0,0,1,53.55,29.92Z"/><path id="path6291" class="cls-10" d="M60.23,33.32c.39,0,.65,0,1,0a1.34,1.34,0,0,1,1.07.7,2.07,2.07,0,0,1,.69.47,6.45,6.45,0,0,1-.24,2.05.67.67,0,0,1-.41.31,2.35,2.35,0,0,1-1.5,2,2,2,0,0,1-1.51-2,.68.68,0,0,1-.42-.46,7.42,7.42,0,0,1-.28-1.86c.33-.28.48-.22.69-.38C59.64,33.66,59.9,33.33,60.23,33.32Z"/><path id="path5404" class="cls-10" d="M62.23,30.35c-.33.26-1,.85-1,1.32s0,.67,0,1.08.22,1.36.22,1.63,0,.62.06.92a.92.92,0,0,1-.33.81,1,1,0,0,1-1,0,1.29,1.29,0,0,1-.31-.82,5.36,5.36,0,0,1,0-.79,14.59,14.59,0,0,1,.22-1.71,4.79,4.79,0,0,0,0-1.07c0-.48-.5-.83-1.06-1.27a1.51,1.51,0,0,1,.76-.46,2.72,2.72,0,0,1,.83-1.15A2.3,2.3,0,0,1,61.41,30,1.66,1.66,0,0,1,62.23,30.35Z"/><path id="path4343" d="M38.42,67.68h.23c.33,0-.08,0,0,0a.61.61,0,0,0,.23,0l.29-.07a.59.59,0,0,1-.27.14,2.79,2.79,0,0,1-.5,0h-.23Z"/><path id="path9585" class="cls-38" d="M39.78,64.9a1.35,1.35,0,0,0-.29,0c-.12,0-.38.13-.34.16s.21.27.31.39.33.49.38.57.15.32.23.36l.23.19a1,1,0,0,0,.26.27.87.87,0,0,0,.21.33,1.11,1.11,0,0,1,.16.38,2.76,2.76,0,0,1,.2.44s.11,0,.15,0,.31-.17.4-.31a1.1,1.1,0,0,0,.23-.49,4.85,4.85,0,0,0,0-.81,1.77,1.77,0,0,0-.33-.58,3.15,3.15,0,0,1-.35-.38,1.17,1.17,0,0,0-.3-.24,2.56,2.56,0,0,0-.36-.17A3.14,3.14,0,0,0,40,65Z"/><path id="path9587" class="cls-23" d="M40.41,66.42a.9.9,0,0,1,.35.4.72.72,0,0,0,.26.37,1.84,1.84,0,0,1,.18.15h0"/><path id="path9589" class="cls-23" d="M39.67,65.49c.15.11.42.17.5.4a.8.8,0,0,0,.27.37l.18.15h0"/><path id="path9591" class="cls-23" d="M39.61,65.09c.14.11.51.27.56.44"/><path id="path9593" class="cls-39" d="M40.74,65.76a.77.77,0,0,1,.24.38.69.69,0,0,0,.18.35l.14.15h0"/><path id="path10468" d="M37.18,68.15s.17.2.21.23a.67.67,0,0,0,.19.12,1.23,1.23,0,0,0,.5,0,1.19,1.19,0,0,0,.42,0,1.73,1.73,0,0,0,.42-.17s.12-.14.15-.17A9.69,9.69,0,0,1,39.63,67s.16.1.14.14-.5,1.08-.54,1.13a.76.76,0,0,1-.09.09l-.18.13a2.71,2.71,0,0,1-.67.25,4.46,4.46,0,0,1-1.21,0A1.63,1.63,0,0,1,37.18,68.15Z"/><path id="path10471" class="cls-20" d="M47.36,69.74c-.08-.15-.17-.62-.27-.85a3.92,3.92,0,0,1-1-.18c-.35-.22.13-.65.1-.81a.46.46,0,0,1-.12-.12.24.24,0,0,1,.09-.18h0s-.12-.25.11-.25a.25.25,0,0,0,.12-.13l-.11-.06c-.19-.11-.1-.21,0-.31a4.35,4.35,0,0,1,.53-.37c.07,0,.09-.07.09-.14a.45.45,0,0,1,.12-.21c.06-.06.27-.22.26-.26s0-.13.06-.15a.24.24,0,0,0,.06-.08s0-.06.08-.06.1-.06.09-.09.09-.14.13-.13a.22.22,0,0,0,.16,0,.53.53,0,0,1,.25-.18l.17-.06a.46.46,0,0,1,.2,0l.27,0,.23.05a.66.66,0,0,1,.16,0,1.69,1.69,0,0,1,.31.13.48.48,0,0,1,.24.08c.12.08.24.22.3.23s.07.09.07.09a.41.41,0,0,0,.14.15l.11.15.16.19.18.34a.21.21,0,0,1,.06.2l0,.45,0,.1,0,.22a.31.31,0,0,0,0,.07s-.06.26-.19.3-.05.11-.13.2-.29.17-.26.2,0,0-.07,0-.08,0-.09,0,0,.14-.1.14-.26.12-.25.2l-.21.08s0,0,0,.1-.07.24-.08.25,0,.53,0,.55A9.69,9.69,0,0,0,47.36,69.74Z"/><path id="path10609" d="M47.45,65.6c.11,0,0,0,.15-.09s0-.06.06-.11a2.63,2.63,0,0,1,.65-.32,1.44,1.44,0,0,1,.68,0,2.22,2.22,0,0,1,.68.25,1.83,1.83,0,0,1,.36.26,4,4,0,0,1,.39.46s.17.3.3.54,0,.28,0,.4a1,1,0,0,1-.06.6c-.07.16-.08.23-.14.25-.06.27-.4.34-.55.43H49.9a3,3,0,0,0-.36-.44c-.25-.28-.33-.58-.66-.69A13.8,13.8,0,0,0,47.41,66c-.17-.17-.12-.11-.1-.21Z"/><path id="path1671" d="M48.79,68.45c-.27-.22.56-.74.59-.64s.55.41.53.46-.15.17-.45.61C49.38,69,49.17,68.71,48.79,68.45Z"/><path id="path10603" class="cls-38" d="M48.58,65.05l-.28,0c-.13,0-.39.13-.35.16s.21.28.31.39a5.65,5.65,0,0,1,.38.58,2.21,2.21,0,0,0,.23.36l.23.18a1,1,0,0,0,.27.28.88.88,0,0,0,.2.32,1.11,1.11,0,0,1,.17.39,2.69,2.69,0,0,1,.2.43s.1,0,.15,0,.3-.17.4-.31a1,1,0,0,0,.22-.48,3.3,3.3,0,0,0,0-.81,1.75,1.75,0,0,0-.32-.58,3.25,3.25,0,0,1-.35-.39,1.83,1.83,0,0,0-.31-.24,1.73,1.73,0,0,0-.35-.16,3.37,3.37,0,0,0-.52-.17Z"/><path id="path10473" class="cls-21" d="M47.75,65.38c-.09,0-.15,0-.12.11a1.89,1.89,0,0,0,.09.19s-.14-.12-.19-.09-.14.07-.1.11a2,2,0,0,0,.15.18l-.18-.12a.19.19,0,0,0,0,.28c.1.12.41.48.46.56a1.22,1.22,0,0,0,.27.23l.31.19-.2,0a1.9,1.9,0,0,0,.35.35c.07,0,.67-.2.63.37a.91.91,0,0,0,0,.2s.11,0,.13.12.14.14.21.17l.17,0s.11.12.15.15.2,0,.06-.27a2.37,2.37,0,0,1-.22-.41,2.27,2.27,0,0,0-.33-.53s0-.09-.07-.15a4,4,0,0,1-.28-.3.76.76,0,0,0-.23-.17,3.94,3.94,0,0,1-.73-.74c-.1-.1.46.47.54.52s.18.09,0-.14a7.36,7.36,0,0,0-.69-.89Z"/><path id="path10475" class="cls-23" d="M47.47,66a1,1,0,0,1,.41.34.76.76,0,0,0,.32.32l.2.12h0"/><path id="path10477" class="cls-26" d="M47.26,66.45a.93.93,0,0,0,.28.47s-.35-.1-.5-.1a.64.64,0,0,1,.06-.2A.9.9,0,0,1,47.26,66.45Z"/><path id="path4303" class="cls-40" d="M50.78,71.25c0,.16-.26-.5-.09-.52s.3.3.3.42S50.87,71.08,50.78,71.25Z"/><g id="g10479"><path id="path10481" class="cls-9" d="M51.3,70.92l-.21,0a.35.35,0,0,0-.15-.23c-.09-.07-.26-.24-.08-.37s.17.05.18.12a1.89,1.89,0,0,0,.12.27c0,.11.12.14.11.16l0,0Z"/><g id="g10483"><path id="path10485" class="cls-9" d="M50.94,71.41a.23.23,0,0,0,.23,0c.07-.06-.05.26-.15.21a.35.35,0,0,1-.08-.22Z"/><g id="g10487"><path id="path10489" class="cls-9" d="M51.21,70.66l.22,0c0,.06.06.22,0,.26s-.32-.2-.29-.21Z"/><g id="g10491"><path id="path10493" class="cls-9" d="M50.79,70.41l-.76.35s-.55.21-.76-.16a.82.82,0,0,0-.09-.25l-.11.15a.31.31,0,0,0,0,.44,1.55,1.55,0,0,0,.15.22.86.86,0,0,0,.39.15,6.64,6.64,0,0,1,1.38.31,4.75,4.75,0,0,0-.11-.5.4.4,0,0,1-.19-.15c-.06-.1,0-.27.17-.13s0,.33.17.31.08-.19.06-.26a.53.53,0,0,0-.16-.2.27.27,0,0,1-.12-.28Z"/><g id="g10495"><path id="path10497" class="cls-9" d="M48.53,70.51a.49.49,0,0,0-.35.36c0,.17-.07.32-.19.37l-.27.1.39.2.29-.05c.19,0,.22-.18.25-.33a.75.75,0,0,1,.15-.37,2,2,0,0,0,.24-.26s0-.11-.11-.15S48.67,70.47,48.53,70.51Z"/><path id="path10499" class="cls-9" d="M46.44,71.22a1.17,1.17,0,0,1,.52.3,1.4,1.4,0,0,1,.53,0c.41.2.6,0,.6,0-.34-.21-.7-.28-.87-.72A6.35,6.35,0,0,1,46.44,71.22Z"/><path id="path10501" class="cls-9" d="M46.3,70.52c-.06,0-.22.28-.21.42a.37.37,0,0,0,.31.28L47,71l-.56-.36Z"/></g></g></g></g></g><path id="path10505" class="cls-23" d="M49.22,66.57a1,1,0,0,1,.34.4.72.72,0,0,0,.26.37l.19.15h0"/><path id="path10507" class="cls-23" d="M48.47,65.64c.15.11.42.18.51.41a.73.73,0,0,0,.26.36l.18.15h0"/><path id="path10509" class="cls-23" d="M48.41,65.25c.14.11.51.27.57.43"/><path id="path10511" class="cls-39" d="M49.54,65.91a.82.82,0,0,1,.24.38.64.64,0,0,0,.19.35l.13.15h0"/><path id="path10513" d="M46,68.3s.16.2.2.24a.62.62,0,0,0,.19.11,1.23,1.23,0,0,0,.5,0,1.19,1.19,0,0,0,.42,0,2.33,2.33,0,0,0,.42-.16s.12-.15.15-.18a10.3,10.3,0,0,1,.56-1.11s.16.1.14.14-.5,1.07-.54,1.12a.2.2,0,0,1-.09.09l-.17.14a3.36,3.36,0,0,1-.67.24c-.33,0-.65.3-1.14,0A.57.57,0,0,1,46,68.3Z"/><path id="path10515" class="cls-20" d="M47.36,80.48c-.08-.15-.17-.62-.27-.85a3.92,3.92,0,0,1-1-.18c-.35-.22.13-.65.1-.81a.34.34,0,0,1-.12-.12.24.24,0,0,1,.09-.18h0s-.12-.25.11-.25a.25.25,0,0,0,.12-.13l-.11-.06c-.19-.1-.1-.21,0-.31a5.85,5.85,0,0,1,.53-.37c.07,0,.09-.07.09-.14a.45.45,0,0,1,.12-.21c.06-.06.27-.22.26-.26s0-.13.06-.15,0-.06.06-.07a.19.19,0,0,1,.08-.07s.1-.06.09-.09.09-.14.13-.13a.2.2,0,0,0,.16,0,.5.5,0,0,1,.25-.19l.17-.06a.46.46,0,0,1,.2,0l.27,0,.23,0a.66.66,0,0,1,.16,0,1.69,1.69,0,0,1,.31.13.48.48,0,0,1,.24.08c.12.09.24.23.3.23s.07.09.07.09a.41.41,0,0,0,.14.15l.11.15.16.19.18.34a.21.21,0,0,1,.06.2l0,.45,0,.1,0,.22a.31.31,0,0,0,0,.07s-.06.27-.19.31-.05.1-.13.19-.29.17-.26.2,0,0-.07,0-.08,0-.09,0,0,.14-.1.14-.26.12-.25.2l-.21.08s0,0,0,.1-.07.24-.08.25,0,.53,0,.55A9.69,9.69,0,0,0,47.36,80.48Z"/><path id="path10611" d="M47.45,76.34c.11,0,0,0,.15-.09s0-.06.06-.1a2.64,2.64,0,0,1,.65-.33,1.44,1.44,0,0,1,.68,0,2.52,2.52,0,0,1,.68.25,1.83,1.83,0,0,1,.36.26,4,4,0,0,1,.39.46s.17.3.3.54,0,.28,0,.4a1,1,0,0,1-.06.6c-.07.16-.08.23-.14.25-.06.27-.4.34-.55.43H49.9a3,3,0,0,0-.36-.44c-.25-.28-.33-.58-.66-.69a13.8,13.8,0,0,0-1.47-1.15c-.17-.17-.12-.11-.1-.2Z"/><path id="path1667" d="M48.81,79.17c-.27-.22.56-.73.59-.64s.55.42.53.46-.15.17-.45.61C49.39,79.67,49.19,79.43,48.81,79.17Z"/><path id="path10618" class="cls-38" d="M48.57,75.8a1.19,1.19,0,0,0-.28,0c-.12,0-.39.13-.35.16s.21.27.31.39a5.62,5.62,0,0,1,.38.57c0,.08.16.32.24.36l.22.19a1,1,0,0,0,.27.27.84.84,0,0,0,.2.33,1,1,0,0,1,.17.38,2.76,2.76,0,0,1,.2.44s.11,0,.15,0,.31-.17.4-.32a.91.91,0,0,0,.22-.48,3.32,3.32,0,0,0,0-.81,1.75,1.75,0,0,0-.32-.58,3.15,3.15,0,0,1-.35-.38,1.23,1.23,0,0,0-.31-.24,2.27,2.27,0,0,0-.35-.17,3.14,3.14,0,0,0-.52-.16Z"/><path id="path10517" class="cls-21" d="M47.75,76.12c-.09,0-.15,0-.12.11a1.89,1.89,0,0,0,.09.19s-.14-.12-.19-.09-.14.07-.1.11a2,2,0,0,0,.15.18l-.18-.12a.2.2,0,0,0,0,.29c.1.11.41.47.46.55a.85.85,0,0,0,.27.23l.31.19-.2-.05a1.9,1.9,0,0,0,.35.35c.07,0,.67-.2.63.37a.91.91,0,0,0,0,.2s.11.05.13.12.14.14.21.17l.17,0s.11.14.15.17.19-.07.06-.28a2.86,2.86,0,0,1-.22-.42,2,2,0,0,0-.33-.52c0-.06,0-.1-.07-.16a2.68,2.68,0,0,1-.28-.3.76.76,0,0,0-.23-.17,4.19,4.19,0,0,1-.73-.73c-.1-.11.46.46.54.51s.18.09,0-.13a6.59,6.59,0,0,0-.69-.9Z"/><path id="path10519" class="cls-23" d="M47.47,76.69a1.06,1.06,0,0,1,.41.34.76.76,0,0,0,.32.32l.2.12h0"/><path id="path10521" class="cls-26" d="M47.26,77.19a.93.93,0,0,0,.28.47s-.35-.1-.5-.1a.56.56,0,0,1,.06-.19A.79.79,0,0,1,47.26,77.19Z"/><path id="path10525" class="cls-8" d="M51,85.83s-.21,0-.21,0a.37.37,0,0,0-.06-.26c-.07-.1-.17-.31,0-.38s.14.11.13.18a1.89,1.89,0,0,0,0,.29c0,.12.07.17,0,.18l0,0Z"/><path id="path10529" class="cls-8" d="M50.46,86.18a.24.24,0,0,0,.21.09c.09,0-.13.22-.2.14a.3.3,0,0,1,0-.23Z"/><path id="path10533" class="cls-8" d="M51,85.56l.22,0c0,.05,0,.22-.07.24-.22.09-.24-.29-.21-.29Z"/><path id="path10537" class="cls-8" d="M50.72,85.16l-.91.11s-.54,0-.62-.31c0-.1.08-.21,0-.22l-.17,0-.2,0s0,.36,0,.49,0,.16,0,.25.25.24.32.27a6.88,6.88,0,0,1,1.2.74c0-.06.06-.47.06-.5a.42.42,0,0,1-.13-.21c0-.11.13-.24.2-.07s-.07.33.06.35.14-.16.15-.23a.48.48,0,0,0-.1-.23.29.29,0,0,1,0-.31h0Z"/><g id="g10539"><path id="path10541" class="cls-9" d="M48,83.92a.6.6,0,0,1-.58,0c-.13-.09-.29-.24-.41-.19a1.47,1.47,0,0,0-.25.13l.11-.42.23-.18c.16-.12.28,0,.42,0s.28.16.37.14.13-.13.22-.12l.42.12A5.67,5.67,0,0,1,48,83.92Z"/><path id="path10543" class="cls-9" d="M46.84,84.55a3,3,0,0,0-.77.33,1.22,1.22,0,0,0,.07-.59,1.33,1.33,0,0,0,.34-.42c.12-.43.41-.43.41-.43a1.52,1.52,0,0,0,0,1.11Z"/><path id="path10545" class="cls-9" d="M46.4,85.22s-.26.12-.36,0a.23.23,0,0,1,0-.32l.36-.21,0,.52Z"/></g><path id="path10549" class="cls-23" d="M49.22,77.31a1,1,0,0,1,.34.4.72.72,0,0,0,.26.37l.19.15h0"/><path id="path10551" class="cls-23" d="M48.47,76.38c.15.11.42.18.51.41a.73.73,0,0,0,.26.36l.18.15h0"/><path id="path10553" class="cls-23" d="M48.41,76c.14.11.51.27.57.43"/><path id="path10555" class="cls-39" d="M49.54,76.65a.8.8,0,0,1,.24.39.64.64,0,0,0,.19.34l.13.15h0"/><path id="path10557" d="M46,79s.16.2.2.24a.47.47,0,0,0,.19.11,1.47,1.47,0,0,0,.5,0,1.5,1.5,0,0,0,.42,0,2.33,2.33,0,0,0,.42-.16s.12-.15.15-.18a10.3,10.3,0,0,1,.56-1.11s.16.1.14.14-.5,1.07-.54,1.12a.2.2,0,0,1-.09.09l-.17.14a2.83,2.83,0,0,1-.67.24,4.53,4.53,0,0,1-1.22,0A1.8,1.8,0,0,1,46,79Z"/><path id="path10559" class="cls-20" d="M39.6,79.85c-.08-.15-.16-.62-.27-.85a3.64,3.64,0,0,1-1-.19c-.34-.21.13-.64.1-.8l-.12-.12a.21.21,0,0,1,.09-.18h0a.14.14,0,0,1,.11-.24c.08,0,.09-.08.12-.13l-.11-.06c-.19-.11-.1-.22,0-.31a3.84,3.84,0,0,1,.54-.37.15.15,0,0,0,.09-.14.36.36,0,0,1,.11-.21c.06-.06.27-.22.26-.26s.05-.13.07-.15,0-.06,0-.08a.12.12,0,0,1,.09-.06s.09-.06.08-.09.1-.14.13-.14a.17.17,0,0,0,.16,0,.47.47,0,0,1,.25-.18l.17-.06a.62.62,0,0,1,.2,0,2.12,2.12,0,0,0,.27,0l.24,0,.16,0c.07,0,.31.12.31.13a.92.92,0,0,1,.23.09c.12.08.24.22.3.23s.07.09.07.09a.41.41,0,0,0,.14.15l.11.15a2.16,2.16,0,0,1,.17.19l.17.34a.23.23,0,0,1,.07.2v.45l0,.09,0,.23,0,.07s-.06.26-.18.3-.06.11-.14.2-.29.17-.26.2,0,0-.07,0-.08,0-.09,0,0,.15-.1.14-.26.13-.25.21l-.2.08s0,0,0,.1-.07.24-.08.25,0,.53,0,.55A9.69,9.69,0,0,0,39.6,79.85Z"/><path id="path3433" d="M41,78.59c-.28-.22.56-.74.58-.64s.56.41.54.46-.16.17-.45.61C41.6,79.09,41.39,78.85,41,78.59Z"/><path id="path10613" d="M39.69,75.7c.11,0,.06,0,.15-.08s0-.06.06-.11a2.46,2.46,0,0,1,.65-.32,1.44,1.44,0,0,1,.68,0,1.91,1.91,0,0,1,.68.25,1.5,1.5,0,0,1,.36.26,5.47,5.47,0,0,1,.4.46l.29.54c.06.1,0,.28,0,.4a1,1,0,0,1,0,.59c-.08.17-.09.24-.15.26-.06.26-.4.34-.55.42h-.09a2.42,2.42,0,0,0-.35-.44c-.26-.28-.33-.58-.67-.69a13.8,13.8,0,0,0-1.47-1.15c-.17-.17-.12-.11-.1-.21Z"/><path id="path10616" class="cls-38" d="M40.83,75.17a1.19,1.19,0,0,0-.28,0c-.12,0-.39.12-.34.16s.2.27.3.39a6.52,6.52,0,0,1,.39.57c0,.08.15.32.23.36l.23.19s.19.25.26.27a.91.91,0,0,0,.2.33,1,1,0,0,1,.17.38,2.76,2.76,0,0,1,.2.44s.11,0,.15,0,.31-.17.4-.32a1,1,0,0,0,.22-.48,3.3,3.3,0,0,0,0-.81,1.75,1.75,0,0,0-.32-.58,3.15,3.15,0,0,1-.35-.38,1.23,1.23,0,0,0-.31-.24,1.59,1.59,0,0,0-.35-.17,3.14,3.14,0,0,0-.52-.16Z"/><path id="path10561" class="cls-21" d="M40,75.49c-.09,0-.15,0-.12.11a1.89,1.89,0,0,0,.09.19s-.14-.13-.19-.09-.14.07-.1.11a2,2,0,0,0,.15.18s-.22-.16-.18-.12a.2.2,0,0,0,0,.28c.1.12.41.48.46.55a1,1,0,0,0,.27.24l.31.19-.19,0a1.8,1.8,0,0,0,.34.35c.07-.05.67-.2.64.37a.61.61,0,0,0,0,.19s.11.06.13.13.14.14.21.17l.17,0s.15.13.19.16.14-.11,0-.28a4.24,4.24,0,0,1-.22-.41,2.27,2.27,0,0,0-.33-.53c0-.06,0-.09-.07-.15a4.12,4.12,0,0,1-.28-.31,1,1,0,0,0-.23-.17,4.18,4.18,0,0,1-.73-.73c-.1-.1.47.47.54.52s.18.09,0-.14a5.72,5.72,0,0,0-.69-.89Z"/><path id="path10563" class="cls-23" d="M39.71,76.06a.86.86,0,0,1,.41.34.69.69,0,0,0,.32.31l.21.12h0"/><path id="path10565" class="cls-26" d="M39.51,76.56a1,1,0,0,0,.27.47s-.35-.1-.5-.1a.54.54,0,0,1,.07-.2A.65.65,0,0,1,39.51,76.56Z"/><path id="path10569" class="cls-8" d="M39.92,80.59s.21,0,.21,0a.38.38,0,0,1,.11-.25c.08-.08.21-.28,0-.38s-.16.09-.16.15a2.92,2.92,0,0,1-.07.29c0,.11-.1.16-.08.17l0,0Z"/><path id="path10573" class="cls-8" d="M40.41,80.93a.22.22,0,0,1-.21.09c-.09,0,.13.22.2.15a.32.32,0,0,0,0-.24Z"/><path id="path10577" class="cls-8" d="M40,80.32h-.22c0,.05,0,.22,0,.25s.29-.23.26-.24Z"/><path id="path1692" class="cls-8" d="M40.55,80.6c0-.06.17-.31,0-.39s-.32.5-.3.51A1.78,1.78,0,0,1,40.55,80.6Z"/><path id="path10581" class="cls-8" d="M40.31,80l.83.15s.58.07.69-.34a2.87,2.87,0,0,1,.13-.5l.17.18c.07.18-.05.18,0,.25a.54.54,0,0,1,0,.35.83.83,0,0,1-.09.25c0,.09-.27.22-.34.24a6.19,6.19,0,0,0-1.26.63,4.53,4.53,0,0,1,0-.5.51.51,0,0,0,.15-.2c0-.11-.11-.26-.2-.09s0,.34-.09.35-.12-.17-.12-.24a.45.45,0,0,1,.11-.23.27.27,0,0,0,.05-.3Z"/><path id="path1694" class="cls-8" d="M42.3,78.42c-.23,0,.12.32,0,.52,0,0,.15.22.2.2C42.75,79,42.44,78.42,42.3,78.42Z"/><g id="g10583"><path id="path10585" class="cls-9" d="M42,78.64A1,1,0,0,1,42,79a.47.47,0,0,0,.08.49.44.44,0,0,1,.18.38,2.55,2.55,0,0,1-.09.27l.39-.19.14-.26c.09-.17,0-.28-.11-.39a.79.79,0,0,1-.21-.35,1.21,1.21,0,0,0-.06-.34c0-.08-.27,0-.27,0Z"/><path id="path10587" class="cls-9" d="M41.46,80.21a3,3,0,0,1-.19.82,1.23,1.23,0,0,1,.57-.18,1.6,1.6,0,0,1,.35-.4c.41-.2.35-.48.35-.48-.37.14-.48.33-1.08.24Z"/><path id="path10589" class="cls-9" d="M40.88,80.76s-.07.28,0,.36a.23.23,0,0,0,.31-.08l.14-.39-.5.11Z"/></g><path id="path10593" class="cls-23" d="M41.46,76.68a1,1,0,0,1,.34.4.73.73,0,0,0,.27.37l.18.15h0"/><path id="path10595" class="cls-23" d="M40.72,75.75c.14.11.42.18.5.4a.78.78,0,0,0,.26.37l.19.15h0"/><path id="path10597" class="cls-23" d="M40.65,75.36c.15.11.51.26.57.43"/><path id="path10599" class="cls-39" d="M41.79,76a.85.85,0,0,1,.24.38.69.69,0,0,0,.18.35l.13.15h0"/><path id="path10601" d="M38.23,78.41c.05,0,.16.2.21.24a.67.67,0,0,0,.18.11,1.24,1.24,0,0,0,.5,0,1.19,1.19,0,0,0,.42,0,1.82,1.82,0,0,0,.43-.17,1.15,1.15,0,0,0,.14-.17,11.62,11.62,0,0,1,.56-1.12s.16.1.14.15-.5,1.07-.53,1.12a.28.28,0,0,1-.1.09l-.17.13a2.87,2.87,0,0,1-.67.25,4.53,4.53,0,0,1-1.22,0A1.78,1.78,0,0,1,38.23,78.41Z"/><path id="path10620" class="cls-25" d="M48.28,68s.07.11.09.13a.11.11,0,0,0,.11,0c.11,0,.28-.19.38-.21a.56.56,0,0,0,.33-.07"/><path id="path10622" class="cls-25" d="M48.24,78.75s.07.11.09.13a.13.13,0,0,0,.12,0c.1,0,.28-.19.37-.21a.54.54,0,0,0,.33-.07"/><path id="path10624" class="cls-25" d="M40.52,78.12s.07.11.09.13a.22.22,0,0,0,.12,0c.1,0,.27-.19.37-.21a.65.65,0,0,0,.33-.07"/><path id="path10632" class="cls-22" d="M48.81,67.66l0,0v0s0,0,0,0a.05.05,0,0,1,0,0h-.12l0,0,0,0,0,0h0l0,0s0,0,0,0v0"/><path id="path10634" d="M48.62,67.47c.13-.07.66,0,.35.3,0,0,0,.07,0,0,.36-.39-.21-.46-.35-.38s0,0,0,0Z"/><path id="path10636" class="cls-22" d="M48.83,78.38a0,0,0,0,1,0,0,.09.09,0,0,1,0,0s0,0,0,0l0,0,0,0s0,0,0,0h0l0,0,0,0,0,0h0l0,0s0,0,0,0l0,0"/><path id="path10638" d="M48.64,78.2c.13-.07.66,0,.34.29,0,0,0,.07,0,.05.36-.4-.21-.47-.35-.39s0,0,0,0Z"/><path id="path10640" class="cls-22" d="M41.07,77.78l0,0v0l0,.05,0,0h-.12s0,0,0,0l0,0a.08.08,0,0,0,0,0h0l0,0s0,0,0,0v0"/><path id="path10642" d="M40.88,77.6c.13-.07.66,0,.35.29,0,0,0,.07,0,0,.36-.4-.21-.46-.35-.39s0,0,0,0Z"/><path id="path3400" class="cls-40" d="M49,70.31s0,.2,0,.22.27.29.42.23.76-.31.76-.44.57-.54.77-.92c.1-.18.24-.83-.06-1a1.28,1.28,0,0,0-.82-.16c0,.07,0,0-.23.45a11,11,0,0,1-.61,1.3A1.49,1.49,0,0,0,49,70.31Z"/><path id="path4298" class="cls-41" d="M50.24,68.7a.67.67,0,0,0-.19-.36l-.1-.07"/><path id="path10644" class="cls-27" d="M50,68.26c0-.08,0-.06.09,0s-.1.25-.24.22-.07-.1,0-.08.11-.15.11-.14Z"/><g id="g1689"><path id="path1691" class="cls-9" d="M49.9,79.24a.92.92,0,0,1,.26.26.47.47,0,0,0,.43.25.44.44,0,0,1,.4.09c.09.1.17.24.17.23l.09-.42-.12-.27c-.07-.18-.23-.16-.38-.16a.7.7,0,0,1-.4,0,1.46,1.46,0,0,0-.3-.16c-.08,0-.15.23-.15.23Z"/><path id="path1693" class="cls-9" d="M51.3,81.35c.12,0,.11-.42.22-.58a1.51,1.51,0,0,1-.1-.53c.09-.45-.16-.57-.16-.57-.06.2-.49,1-.5,1.15C50.74,81.14,51.23,81.26,51.3,81.35Z"/></g><path id="path10646" class="cls-27" d="M50,79c0-.08.05-.06.1,0s-.11.25-.25.22-.07-.1.05-.09S50,79,50,79h0Z"/><path id="path10648" class="cls-27" d="M42.23,78.38c0-.08.05-.06.1,0s-.1.25-.24.22-.08-.11,0-.09.1-.14.1-.14Z"/><path id="path10650" d="M47,67.83h.23c.33,0-.08,0,0,0a.6.6,0,0,0,.22-.06l.29-.1c-.08,0-.17.2-.26.2a2.8,2.8,0,0,1-.5,0h-.24Z"/><path id="path10652" d="M39.35,78h.23c.33,0-.08,0,0,0a.62.62,0,0,0,.23,0l.29-.06c-.08,0-.18.14-.27.14a2.9,2.9,0,0,1-.51,0h-.23Z"/><path id="path10654" d="M47.07,78.68h.23c.33,0-.08,0,0,0a.85.85,0,0,0,.23,0l.29-.07a.59.59,0,0,1-.27.14,4.18,4.18,0,0,1-.5,0h-.23Z"/><path id="path12441" class="cls-42" d="M41.77,51.59l-.36-.11a1.1,1.1,0,0,0-.51,0c-.16,0-.11.37-.11.51s.53.22.69.22.32,0,.44-.11S41.81,51.64,41.77,51.59Z"/><path id="path12443" class="cls-42" d="M42.44,52.91c.05,0-.35,0-.72,0s-.22.32-.18.47.56.18.68.15.24-.2.37-.36S42.64,53,42.44,52.91Z"/><path id="path12449" class="cls-42" d="M41.17,51.47a.44.44,0,0,1-.05-.35c0-.1.14-.11.24-.11a2,2,0,0,1,.5,0c.14,0,.31,0,.42,0a.19.19,0,0,1,.16.12.81.81,0,0,1,0,.35,1.81,1.81,0,0,1,0,.25s-.24,0-.27,0a1.37,1.37,0,0,1-.29,0s-.11-.11-.13-.15-.12-.07-.18-.1-.17,0-.23-.08A.56.56,0,0,0,41.17,51.47Z"/><path id="path12451" class="cls-42" d="M44.74,53.26a1.32,1.32,0,0,0-.49.05c-.18,0-.18.23-.15.38s.25.12.33.14a.8.8,0,0,1,.31.09.69.69,0,0,0,.43.17c.31,0,.24-.07.36-.27s.2-.13.26-.18,0-.22-.08-.28a.71.71,0,0,0-.3-.1,1.37,1.37,0,0,0-.35,0A1.15,1.15,0,0,0,44.74,53.26Z"/><path id="path12455" class="cls-42" d="M47.74,52.6a5.45,5.45,0,0,0-.82,0,.19.19,0,0,0-.21.18c0,.18.06.21.23.25a1.72,1.72,0,0,1,.36.09.86.86,0,0,0,.35.06.37.37,0,0,0,.27-.15c.08-.08,0-.21,0-.29S47.84,52.62,47.74,52.6Z"/><path id="path12457" class="cls-42" d="M48.1,52.46c0-.11-.54.28-.81.07s-.12-.22-.24-.34.13-.24.16-.25l.26-.13a.94.94,0,0,1,.4-.07c.11,0,.26.16.36.21s.05.25.05.37S48.17,52.43,48.1,52.46Z"/><path id="path12459" class="cls-42" d="M48.34,51.85s-.4-.21-.46-.24-.06-.16,0-.23.17-.17.39-.17.25.08.31-.11.11-.18.29-.25a1.07,1.07,0,0,1,.31,0c.13,0,.13.2.11.29a.59.59,0,0,1-.17.31.9.9,0,0,0-.16.18c0,.07-.15.11-.22.12S48.47,51.8,48.34,51.85Z"/><path id="path12461" class="cls-42" d="M48.73,51.85c-.09,0,.2-.1.29-.08a.51.51,0,0,1,.22.15c.07.07.07.2.09.29s.09.1.07.21-.18.09-.27.09h-.4a1.07,1.07,0,0,1-.27-.06.19.19,0,0,1-.12-.2c0-.11,0-.22,0-.3S48.76,51.86,48.73,51.85Z"/><path id="path12465" class="cls-42" d="M48.32,53.07a5.9,5.9,0,0,1,.68.13.39.39,0,0,1,.28.18.19.19,0,0,1-.15.26,1.7,1.7,0,0,1-.45-.08l-.36-.09c-.2-.06-.18-.06-.13-.25S48.31,53.08,48.32,53.07Z"/><path id="path13340" class="cls-43" d="M43.38,53c0-.05-.35,0-.72,0s-.22.33-.18.48.56.18.68.15.24-.2.37-.37S43.58,53.15,43.38,53Z"/><path id="path13342" class="cls-42" d="M42.5,53.42c0-.05-.35,0-.73,0s-.22.32-.18.47.57.18.69.15.24-.2.36-.36S42.69,53.54,42.5,53.42Z"/><path id="path13344" class="cls-42" d="M41.48,53.86c.05,0-.34,0-.72,0-.23,0-.22.32-.18.47s.56.17.69.14.23-.19.36-.36S41.68,54,41.48,53.86Z"/><path id="path13346" class="cls-42" d="M45.71,51.47s-.34,0-.72,0-.22.32-.18.47.57.18.69.15.23-.2.36-.37S45.91,51.59,45.71,51.47Z"/><path id="path13348" class="cls-42" d="M43.53,50.48s-.35,0-.73,0c-.23,0-.22.32-.18.47s.57.17.69.14.24-.19.36-.36S43.72,50.6,43.53,50.48Z"/><path id="path13350" class="cls-42" d="M47.61,53.35c0-.05-.34,0-.72,0s-.22.32-.18.47.56.18.69.15.23-.2.36-.36S47.81,53.47,47.61,53.35Z"/><path id="path13352" class="cls-42" d="M38.4,52.1a.68.68,0,0,0-.31,0c-.09,0-.13.06-.21.08s-.12.1-.16.13-.08,0,.13.11a1.44,1.44,0,0,0,.21.09,1,1,0,0,0,.24,0,.85.85,0,0,0,.25,0c.11-.06.11-.09.11-.22s0-.14-.13-.18Z"/><path id="path15100" class="cls-42" d="M38.62,52.42a1.19,1.19,0,0,0-.31,0,1.38,1.38,0,0,1-.2.08c-.08,0-.13.1-.17.14s-.08,0,.13.11a1.61,1.61,0,0,1,.21.09,1,1,0,0,0,.24,0,.6.6,0,0,0,.25,0c.11,0,.11-.09.11-.22s0-.13-.12-.18A.66.66,0,0,0,38.62,52.42Z"/><path id="path15102" class="cls-42" d="M38.84,52.79a.83.83,0,0,0-.31,0,2.07,2.07,0,0,1-.21.08c-.07,0-.12.1-.16.14s-.08,0,.13.11.15.08.2.09a1,1,0,0,0,.25,0,.6.6,0,0,0,.25,0c.11,0,.11-.08.11-.21s0-.14-.13-.18S38.87,52.79,38.84,52.79Z"/><path id="path15104" class="cls-42" d="M39.15,53.16a1.15,1.15,0,0,0-.31,0,2.07,2.07,0,0,1-.21.08.32.32,0,0,0-.16.14c-.07.07-.09,0,.12.11s.16.08.21.09a1,1,0,0,0,.25,0,.62.62,0,0,0,.25,0c.11-.05.11-.08.11-.21s0-.14-.13-.19Z"/><path id="path15106" class="cls-42" d="M39.61,53.47a1.05,1.05,0,0,0-.3.07c-.09,0-.12.09-.19.11a.5.5,0,0,0-.14.16c-.06.08-.07,0,.14.09l.22.06a1.2,1.2,0,0,0,.24,0,.57.57,0,0,0,.25-.08c.1-.07.09-.1.07-.23s0-.13-.15-.16S39.64,53.47,39.61,53.47Z"/><path id="path15108" class="cls-42" d="M48.68,51.47a.83.83,0,0,1,.31,0,2.07,2.07,0,0,0,.21.08c.07,0,.12.1.16.14s.08,0-.13.11a1.43,1.43,0,0,1-.2.09,1,1,0,0,1-.25,0,.62.62,0,0,1-.25,0c-.11,0-.11-.08-.11-.21s0-.14.13-.18S48.65,51.47,48.68,51.47Z"/><path id="path15110" class="cls-42" d="M38.6,51.23a.64.64,0,0,0-.3,0,1.56,1.56,0,0,0-.21.08c-.08,0-.13.1-.17.14s-.08,0,.13.1a2.13,2.13,0,0,0,.21.09,1,1,0,0,0,.24,0,1,1,0,0,0,.26,0c.1-.06.11-.09.11-.22s0-.13-.13-.18Z"/><path id="path15112" class="cls-42" d="M38.92,50.87a.74.74,0,0,0-.31,0c-.1,0-.14,0-.22,0a.46.46,0,0,0-.18.11c-.08.06-.08,0,.11.13s.14.1.19.12a.85.85,0,0,0,.25,0,.52.52,0,0,0,.25,0c.11,0,.12-.07.14-.19s0-.14-.1-.2S39,50.87,38.92,50.87Z"/><path id="path15114" class="cls-42" d="M39.46,50.57a.84.84,0,0,0-.3-.06c-.1,0-.15,0-.22,0a.35.35,0,0,0-.19.1c-.09,0-.09,0,.09.13l.19.14a.94.94,0,0,0,.23.06.82.82,0,0,0,.26,0c.11,0,.12-.06.15-.19s0-.13-.08-.2A.28.28,0,0,0,39.46,50.57Z"/><path id="path15116" class="cls-42" d="M40,53.73a.79.79,0,0,0-.29.09c-.09,0-.12.1-.18.13s-.1.13-.13.18-.07,0,.15.07.17,0,.23,0a1.83,1.83,0,0,0,.23-.07.81.81,0,0,0,.24-.09c.09-.08.08-.12,0-.24s-.07-.12-.17-.15Z"/><path id="path15118" class="cls-42" d="M40.05,54.05a.81.81,0,0,0-.3.1c-.08,0-.11.09-.18.13s-.1.12-.12.17-.07,0,.15.07l.22,0a1.67,1.67,0,0,0,.24-.06.83.83,0,0,0,.23-.1c.09-.08.09-.11.05-.24s-.06-.12-.16-.14A.28.28,0,0,0,40.05,54.05Z"/><path id="path15120" class="cls-42" d="M43.26,54.81a.79.79,0,0,0-.29.09c-.09.05-.11.1-.18.14s-.1.12-.12.17-.08,0,.15.07l.22,0a1.67,1.67,0,0,0,.24-.06.83.83,0,0,0,.23-.1c.09-.08.09-.12.05-.24s-.06-.12-.16-.14A.35.35,0,0,0,43.26,54.81Z"/><path id="path15122" class="cls-42" d="M42.61,54.7a.83.83,0,0,0-.29.1.93.93,0,0,0-.18.13c-.07,0-.1.12-.12.17s-.08,0,.15.07l.22,0a.93.93,0,0,0,.24-.06.83.83,0,0,0,.23-.1c.09-.08.08-.11,0-.24s-.07-.12-.17-.14S42.64,54.69,42.61,54.7Z"/><path id="path15124" class="cls-42" d="M42,54.59a.77.77,0,0,0-.29.1,1.56,1.56,0,0,0-.19.13c-.06,0-.09.13-.12.17s-.07,0,.15.07l.22,0A.84.84,0,0,0,42,55a.75.75,0,0,0,.24-.1c.09-.08.08-.11,0-.24s-.07-.12-.17-.14S42,54.59,42,54.59Z"/><path id="path15126" class="cls-42" d="M41.62,54.27a.74.74,0,0,0-.29.09c-.09,0-.12.1-.19.13s-.09.13-.12.18-.07,0,.15.07l.22,0a.84.84,0,0,0,.24-.06.67.67,0,0,0,.24-.1c.09-.07.08-.11.05-.23s-.07-.13-.17-.15Z"/><path id="path15128" class="cls-42" d="M40.47,54.1a.71.71,0,0,0-.22.21,2.19,2.19,0,0,0-.11.2.4.4,0,0,0,0,.21c0,.1,0,.08.16,0l.22-.07a2,2,0,0,0,.19-.16.85.85,0,0,0,.16-.19c0-.11,0-.14-.06-.24s-.11-.08-.21-.05S40.49,54.08,40.47,54.1Z"/><path id="path15132" class="cls-42" d="M48.83,52.93a.69.69,0,0,1,.31,0,2.07,2.07,0,0,1,.2.08c.08,0,.13.1.17.13s.08,0-.13.11a2.13,2.13,0,0,1-.21.09,1,1,0,0,1-.24,0,1,1,0,0,1-.26,0c-.1-.06-.1-.09-.1-.22s0-.13.12-.18Z"/><path id="path15134" class="cls-42" d="M48.78,53.37a.85.85,0,0,1,.29.12c.08,0,.11.1.17.14a.51.51,0,0,1,.11.18c0,.09.07.06-.16.07a2,2,0,0,1-.22,0c-.08,0-.12,0-.23-.07a.82.82,0,0,1-.23-.12c-.08-.08-.07-.12,0-.24s.07-.12.17-.13Z"/><path id="path15136" class="cls-42" d="M44.54,54.75a.71.71,0,0,1,.27.16,1.77,1.77,0,0,1,.14.17.31.31,0,0,1,.08.19c0,.1.06.07-.16,0s-.17,0-.23,0a1.08,1.08,0,0,1-.21-.11,1,1,0,0,1-.21-.16c-.07-.09,0-.12,0-.24s.09-.1.2-.1S44.52,54.73,44.54,54.75Z"/><path id="path15138" class="cls-42" d="M48.52,53.76a.86.86,0,0,1,.31,0c.09,0,.13.06.21.08s.12.1.16.14.08,0-.13.11-.15.07-.21.09a1,1,0,0,1-.24,0,.6.6,0,0,1-.25,0c-.11,0-.11-.09-.11-.22s0-.13.12-.18Z"/><path id="path15140" class="cls-42" d="M48,53.94a.94.94,0,0,1,.29.12c.08.06.1.11.17.15s.08.13.1.18.07,0-.15.06l-.23,0a2.16,2.16,0,0,1-.23-.08.75.75,0,0,1-.22-.12c-.09-.09-.08-.12,0-.24s.08-.12.18-.13Z"/><path id="path15144" class="cls-42" d="M47.65,54.21a.71.71,0,0,1,.28.12c.09.05.11.1.17.14a.4.4,0,0,1,.11.18c0,.09.07.06-.15.07a2.3,2.3,0,0,1-.23,0c-.08,0-.12,0-.23-.08a.82.82,0,0,1-.23-.11c-.08-.09-.07-.12,0-.25s.08-.11.18-.12S47.62,54.2,47.65,54.21Z"/><path id="path15146" class="cls-42" d="M47,54.26a.9.9,0,0,1,.28.12c.08.06.11.11.17.15s.09.13.11.18.07.06-.15.06l-.23,0a2.16,2.16,0,0,1-.23-.08.82.82,0,0,1-.23-.12c-.08-.09-.07-.12,0-.24s.08-.12.18-.13Z"/><path id="path15148" class="cls-42" d="M46.65,54.54a.81.81,0,0,1,.29.11c.08.06.11.11.17.15s.08.13.11.18.06.06-.16.06l-.22,0a.79.79,0,0,1-.23-.08.7.7,0,0,1-.23-.12c-.09-.08-.08-.12,0-.24s.07-.12.18-.13A.61.61,0,0,1,46.65,54.54Z"/><path id="path15150" class="cls-42" d="M45.19,54.75a.81.81,0,0,1,.28.12c.09.05.11.1.17.15s.09.13.11.18.07,0-.15.06a2.3,2.3,0,0,1-.23,0c-.08,0-.12,0-.23-.07a.82.82,0,0,1-.23-.12c-.08-.09-.07-.12,0-.24s.08-.12.18-.13S45.16,54.74,45.19,54.75Z"/><path id="path15152" class="cls-42" d="M46.07,54.36a.76.76,0,0,1,.22.22c.05.09.05.14.09.2a.33.33,0,0,1,0,.21c0,.1,0,.08-.17,0s-.16-.05-.21-.08a.91.91,0,0,1-.18-.17.67.67,0,0,1-.16-.19c0-.12,0-.14.07-.24s.12-.07.21,0S46.05,54.34,46.07,54.36Z"/><path id="path15154" class="cls-42" d="M45.68,54.5a.64.64,0,0,1,.21.22,1.85,1.85,0,0,1,.1.2.4.4,0,0,1,0,.21c0,.1,0,.08-.17,0l-.21-.07c-.08,0-.1-.09-.18-.17a.56.56,0,0,1-.16-.2c0-.11,0-.14.06-.23s.12-.08.22-.05S45.66,54.48,45.68,54.5Z"/><path id="path15156" class="cls-42" d="M48.94,52.51a1.1,1.1,0,0,1,.3,0,2.07,2.07,0,0,0,.21.08.32.32,0,0,1,.16.14c.07.07.09,0-.12.11s-.16.08-.21.09A1,1,0,0,1,49,53a.65.65,0,0,1-.26,0c-.1,0-.11-.09-.11-.22s0-.13.13-.18Z"/><path id="path15158" class="cls-42" d="M38.15,51.66a1.17,1.17,0,0,0-.31,0,1.38,1.38,0,0,1-.2.08c-.08,0-.13.1-.17.14s-.08,0,.13.11.16.08.21.09a1,1,0,0,0,.24,0,.6.6,0,0,0,.25,0c.11-.05.11-.09.11-.21s0-.14-.12-.19Z"/><path id="path15160" class="cls-42" d="M38.69,51.66a1.1,1.1,0,0,0-.3,0,2.07,2.07,0,0,1-.21.08.32.32,0,0,0-.16.14c-.07.07-.09,0,.12.11s.16.08.21.09a1,1,0,0,0,.24,0,.68.68,0,0,0,.26,0C39,52,39,52,39,51.85s0-.14-.13-.19Z"/><path id="path15170" class="cls-44" d="M43,51.26s-.28,0-.57,0-.17.26-.14.38.44.14.54.12.18-.16.28-.3S43.15,51.35,43,51.26Z"/><path id="path15162" class="cls-42" d="M43.45,51.41a.68.68,0,0,0-.31,0c-.09,0-.13.06-.21.08s-.12.1-.16.14-.08,0,.13.1l.21.1a1,1,0,0,0,.24,0,.6.6,0,0,0,.25,0c.11-.05.11-.09.11-.22s0-.13-.13-.18Z"/><path id="path15164" class="cls-42" d="M43.43,51a.69.69,0,0,0-.31,0,2.07,2.07,0,0,0-.2.08c-.08,0-.13.1-.17.13s-.08,0,.13.11a2.13,2.13,0,0,0,.21.09,1,1,0,0,0,.24,0,.6.6,0,0,0,.25,0c.11,0,.11-.08.11-.21s0-.14-.12-.18S43.46,51,43.43,51Z"/><path id="path15168" class="cls-44" d="M43.19,53.63s-.27,0-.56,0-.17.26-.14.39.44.14.53.12.19-.16.29-.3S43.35,53.73,43.19,53.63Z"/><path id="path15172" class="cls-44" d="M42.83,50.79s-.27,0-.56,0-.17.26-.15.38.45.14.54.12.19-.16.29-.3S43,50.88,42.83,50.79Z"/><path id="path15174" class="cls-44" d="M41.4,52.11s-.27,0-.56,0-.17.26-.14.38.44.14.53.12.19-.16.29-.3S41.56,52.2,41.4,52.11Z"/><path id="path15176" class="cls-44" d="M42.13,52.07s-.27,0-.57,0-.17.26-.14.38.44.15.54.12.18-.16.28-.29S42.28,52.17,42.13,52.07Z"/><path id="path15178" class="cls-44" d="M42.51,51.64s-.28,0-.57,0-.17.26-.14.38.44.14.54.12.18-.16.28-.3S42.66,51.73,42.51,51.64Z"/><path id="path15180" class="cls-44" d="M41.59,52.47s-.28,0-.57,0-.17.26-.14.38.44.14.54.12.18-.16.28-.3S41.74,52.56,41.59,52.47Z"/><path id="path15182" class="cls-44" d="M40.75,53.64s-.27,0-.56,0-.17.26-.14.39.44.14.53.11.19-.15.29-.29S40.91,53.74,40.75,53.64Z"/><path id="path15186" class="cls-42" d="M48.41,51.67c.05-.05-.35,0-.72,0s-.22.32-.19.47.57.18.69.14.24-.19.36-.36S48.61,51.79,48.41,51.67Z"/><path id="path15188" class="cls-42" d="M40.67,52.34a.68.68,0,0,0-.31,0c-.09,0-.13.06-.21.08s-.12.1-.16.13-.08,0,.13.11a1.44,1.44,0,0,0,.21.09,1,1,0,0,0,.24,0,.85.85,0,0,0,.25,0c.11-.06.11-.09.11-.22s0-.13-.13-.18A.56.56,0,0,0,40.67,52.34Z"/><path id="path15190" class="cls-42" d="M39.63,50.89a.69.69,0,0,0-.31,0,2.07,2.07,0,0,0-.2.08c-.08,0-.13.1-.17.13s-.08,0,.13.11a2.13,2.13,0,0,0,.21.09,1,1,0,0,0,.24,0,.85.85,0,0,0,.25,0c.11-.06.11-.09.11-.22s0-.14-.12-.18S39.66,50.89,39.63,50.89Z"/><path id="path15192" class="cls-42" d="M43.64,54.59a.68.68,0,0,0-.31,0,1.56,1.56,0,0,0-.21.08.43.43,0,0,0-.16.13c-.07.07-.09,0,.12.11a2.13,2.13,0,0,0,.21.09,1,1,0,0,0,.25,0,.9.9,0,0,0,.25,0c.11-.06.11-.09.11-.22s0-.13-.13-.18A.57.57,0,0,0,43.64,54.59Z"/><path id="path15194" class="cls-42" d="M40.31,53.29a.83.83,0,0,0-.31,0,1.38,1.38,0,0,1-.2.08c-.08,0-.13.1-.17.14s-.08,0,.13.11a2.13,2.13,0,0,0,.21.09,1,1,0,0,0,.24,0,.6.6,0,0,0,.25,0c.11,0,.11-.08.11-.21s0-.14-.12-.18S40.34,53.29,40.31,53.29Z"/><path id="path15196" class="cls-44" d="M44,54.18s-.28,0-.57,0-.17.26-.14.38.44.14.54.12.18-.16.28-.3S44.15,54.27,44,54.18Z"/><path id="path15198" class="cls-44" d="M45,54.23s-.27,0-.57,0-.17.26-.14.38.44.15.54.12.18-.16.28-.29S45.17,54.33,45,54.23Z"/><path id="path15200" class="cls-44" d="M45,53.72s-.27,0-.56,0-.17.26-.14.38.44.14.53.12.19-.16.29-.3S45.2,53.81,45,53.72Z"/><path id="path15202" class="cls-44" d="M44.25,53.72s-.27,0-.57,0-.17.26-.14.38.45.14.54.12.19-.16.28-.3S44.41,53.81,44.25,53.72Z"/><path id="path15204" class="cls-44" d="M45,50s-.28,0-.57,0-.17.26-.14.38.44.14.54.12.18-.16.28-.3S45.12,50.05,45,50Z"/><path id="path15256" class="cls-44" d="M45.8,50.5s-.27,0-.57,0-.17.26-.14.38.44.14.54.12.18-.16.28-.3S46,50.59,45.8,50.5Z"/><path id="path15206" class="cls-44" d="M45.56,50.21s-.28,0-.57,0-.17.26-.14.39.44.14.54.12.18-.16.28-.3S45.71,50.31,45.56,50.21Z"/><path id="path15208" class="cls-44" d="M46.32,50.42s-.27,0-.56,0-.17.26-.15.38.45.14.54.12.19-.16.29-.3S46.48,50.52,46.32,50.42Z"/><path id="path15210" class="cls-44" d="M42.67,50.24s-.28,0-.57,0-.17.26-.14.38.44.15.54.12.18-.16.28-.29S42.82,50.34,42.67,50.24Z"/><path id="path15212" class="cls-44" d="M41.82,50.19s-.27,0-.56,0-.18.26-.15.38.45.14.54.12.19-.16.29-.3S42,50.29,41.82,50.19Z"/><path id="path15214" class="cls-44" d="M46.71,54.15s-.28,0-.57,0-.17.26-.14.39.44.14.54.11.18-.16.28-.29S46.86,54.25,46.71,54.15Z"/><path id="path15216" class="cls-42" d="M41.13,50.23a3.46,3.46,0,0,0-.72,0c-.23,0-.22.32-.18.47s.56.18.69.15.23-.2.36-.36S41.33,50.35,41.13,50.23Z"/><path id="path15220" class="cls-42" d="M40.72,51.82c.05,0-.34,0-.72,0-.23,0-.22.32-.18.47s.56.18.69.15.23-.2.36-.37S40.92,51.94,40.72,51.82Z"/><path id="path15222" class="cls-42" d="M43.46,52.13c0-.05-.35,0-.72,0s-.22.32-.18.47.56.17.68.14.24-.19.37-.36S43.66,52.25,43.46,52.13Z"/><path id="path15224" class="cls-42" d="M45.07,52.41s-.35,0-.72,0-.22.32-.18.47.56.17.68.14.24-.19.37-.36S45.27,52.53,45.07,52.41Z"/><path id="path15226" class="cls-42" d="M45.35,50.77c0-.05-.35,0-.72,0s-.22.32-.18.47.56.18.69.15.23-.2.36-.37S45.55,50.89,45.35,50.77Z"/><path id="path15228" class="cls-42" d="M46.15,50.93s-.35,0-.73,0-.22.32-.18.47.57.17.69.14.24-.19.36-.36S46.34,51,46.15,50.93Z"/><path id="path15230" class="cls-12" d="M45.58,52a3.46,3.46,0,0,0-.72,0c-.23,0-.22.28-.18.4s.56.15.69.13.23-.17.36-.31S45.78,52.15,45.58,52Z"/><path id="path15232" class="cls-42" d="M46.3,52.56c.05-.05-.35,0-.72,0s-.22.32-.18.47.56.18.68.15.24-.2.36-.36S46.5,52.68,46.3,52.56Z"/><path id="path15234" class="cls-42" d="M44.58,50.37a.68.68,0,0,1,.31,0c.09,0,.13.06.21.08s.12.1.16.14.08,0-.13.1a1.44,1.44,0,0,1-.21.09,1,1,0,0,1-.24,0,.85.85,0,0,1-.25,0c-.11-.06-.11-.09-.11-.22s0-.13.12-.18Z"/><path id="path15236" class="cls-42" d="M44.66,51.21a1.1,1.1,0,0,1,.3,0,2.07,2.07,0,0,0,.21.08.32.32,0,0,1,.16.14c.08.07.09,0-.12.11s-.16.08-.21.09a1,1,0,0,1-.24,0,.68.68,0,0,1-.26,0c-.1,0-.11-.09-.11-.22s0-.13.13-.18Z"/><path id="path15238" class="cls-42" d="M48.29,52.26a.64.64,0,0,1,.3,0,1.56,1.56,0,0,1,.21.08.32.32,0,0,1,.16.14c.07.07.09,0-.12.1a2.13,2.13,0,0,1-.21.09,1,1,0,0,1-.25,0,.9.9,0,0,1-.25,0c-.11,0-.11-.09-.11-.22s0-.13.13-.18Z"/><path id="path15240" class="cls-42" d="M47.76,52.39a.68.68,0,0,1,.31,0c.09,0,.13.06.21.08s.12.1.16.13.08,0-.13.11a1.44,1.44,0,0,1-.21.09,1,1,0,0,1-.24,0,.85.85,0,0,1-.25,0c-.11-.06-.11-.09-.11-.22s0-.14.13-.18S47.73,52.39,47.76,52.39Z"/><path id="path15242" class="cls-42" d="M47.72,53.71a.68.68,0,0,1,.31,0,1.56,1.56,0,0,1,.21.08c.08,0,.13.1.16.13s.09,0-.12.11a2.13,2.13,0,0,1-.21.09,1,1,0,0,1-.25,0,.9.9,0,0,1-.25,0c-.11-.06-.11-.09-.11-.22s0-.14.13-.18S47.69,53.71,47.72,53.71Z"/><path id="path15244" class="cls-42" d="M48,53.38a.87.87,0,0,1,.31,0,2.07,2.07,0,0,1,.2.08c.08,0,.13.1.17.14s.08,0-.13.11a1.61,1.61,0,0,0-.21.09,1,1,0,0,1-.24,0,.68.68,0,0,1-.26,0c-.1-.05-.1-.09-.1-.22s0-.13.12-.18A.66.66,0,0,1,48,53.38Z"/><path id="path15246" class="cls-42" d="M48.23,52.64a.68.68,0,0,1,.31,0c.09,0,.13.06.21.08s.12.1.16.14.08,0-.13.1a1.44,1.44,0,0,1-.21.09,1,1,0,0,1-.24,0,.85.85,0,0,1-.25,0C48,53,48,53,48,52.82s0-.13.13-.18Z"/><path id="path15248" class="cls-42" d="M47.72,53A1.15,1.15,0,0,1,48,53a2.07,2.07,0,0,0,.21.08.32.32,0,0,1,.16.14c.07.07.09,0-.12.11s-.16.08-.21.09a1,1,0,0,1-.25,0,.62.62,0,0,1-.25,0c-.11-.05-.11-.09-.11-.22s0-.13.13-.18Z"/><path id="path15250" class="cls-42" d="M47,53.92a1.1,1.1,0,0,1,.3,0,2.07,2.07,0,0,0,.21.08c.08,0,.13.1.17.14s.08,0-.13.11-.16.08-.21.09a1,1,0,0,1-.24,0,.68.68,0,0,1-.26,0c-.1,0-.11-.09-.11-.21s0-.14.13-.19A.66.66,0,0,1,47,53.92Z"/><path id="path15252" class="cls-42" d="M48,50.87a.68.68,0,0,1,.31,0,1.56,1.56,0,0,1,.21.08c.07,0,.12.1.16.13s.08,0-.12.11a2.13,2.13,0,0,1-.21.09,1,1,0,0,1-.25,0,.9.9,0,0,1-.25,0c-.11-.06-.11-.09-.11-.22s0-.14.13-.18Z"/><path id="path15254" class="cls-42" d="M45.88,52.21a.83.83,0,0,1,.31,0c.09,0,.13.07.21.09s.12.09.16.13.08,0-.13.11a1.44,1.44,0,0,1-.21.09,1,1,0,0,1-.24,0,.6.6,0,0,1-.25,0c-.11-.05-.11-.08-.11-.21s0-.14.12-.18S45.85,52.21,45.88,52.21Z"/><path id="path15258" class="cls-44" d="M46.83,51.54s-.27,0-.57,0-.17.27-.14.39.44.14.54.12.18-.16.28-.3S47,51.64,46.83,51.54Z"/><path id="path15260" class="cls-44" d="M47.1,50.8s-.27,0-.57,0-.17.26-.14.39.44.14.54.12.19-.16.28-.3S47.26,50.9,47.1,50.8Z"/><path id="path15262" class="cls-44" d="M47.72,51.26s-.28,0-.57,0-.17.26-.14.38.44.14.54.12.18-.16.28-.3S47.87,51.35,47.72,51.26Z"/><path id="path15264" class="cls-44" d="M46.47,53.55s-.27,0-.57,0-.17.26-.14.39.44.14.54.11.18-.16.28-.29S46.62,53.65,46.47,53.55Z"/><path id="path15266" class="cls-42" d="M46.57,52.51a1.1,1.1,0,0,1,.3,0,2.07,2.07,0,0,0,.21.08c.08,0,.13.1.17.14s.08,0-.13.11-.16.08-.21.09a1,1,0,0,1-.24,0,.68.68,0,0,1-.26,0c-.1,0-.1-.09-.1-.22s0-.13.12-.18Z"/><path id="path15268" class="cls-42" d="M45.84,51.83a.68.68,0,0,1,.31,0,1.56,1.56,0,0,1,.21.08.35.35,0,0,1,.16.13c.07.07.08,0-.12.11a2.13,2.13,0,0,1-.21.09,1,1,0,0,1-.25,0,.62.62,0,0,1-.25,0c-.11,0-.11-.08-.11-.21s0-.14.13-.18S45.81,51.83,45.84,51.83Z"/><path id="path15270" class="cls-42" d="M46.33,51.18a.83.83,0,0,1,.31,0c.1,0,.14.07.21.09s.12.09.16.13.08,0-.13.11a1.43,1.43,0,0,1-.2.09,1,1,0,0,1-.25,0,.6.6,0,0,1-.25,0c-.11,0-.11-.08-.11-.21s0-.14.13-.18S46.3,51.18,46.33,51.18Z"/><path id="path15272" class="cls-42" d="M46.69,51.94A.82.82,0,0,1,47,52a2.07,2.07,0,0,0,.21.08.37.37,0,0,1,.16.14c.07.07.08,0-.12.11a2.13,2.13,0,0,1-.21.09,1,1,0,0,1-.25,0,.62.62,0,0,1-.25,0c-.11,0-.11-.08-.11-.21s0-.14.13-.18S46.66,51.94,46.69,51.94Z"/><path id="path15274" class="cls-42" d="M46.68,50.49a.64.64,0,0,1,.3,0,1.56,1.56,0,0,1,.21.08c.08,0,.13.1.16.13s.09,0-.12.11a2.13,2.13,0,0,1-.21.09,1,1,0,0,1-.24,0,.93.93,0,0,1-.26,0c-.1-.06-.11-.09-.11-.22s0-.14.13-.18A.66.66,0,0,1,46.68,50.49Z"/><path id="path15276" class="cls-42" d="M47.45,50.58a.68.68,0,0,1,.31,0,1.56,1.56,0,0,1,.21.08c.07,0,.12.1.16.13s.08,0-.13.11a1.43,1.43,0,0,1-.2.09,1,1,0,0,1-.25,0,.9.9,0,0,1-.25,0c-.11-.06-.11-.09-.11-.22s0-.13.13-.18Z"/><path id="path15278" class="cls-42" d="M39.51,52.36a.81.81,0,0,0-.3,0c-.1,0-.15,0-.22,0s-.15.07-.19.09-.09,0,.1.14l.18.14a1,1,0,0,0,.23,0,.86.86,0,0,0,.26,0c.12,0,.13-.06.16-.19s0-.14-.08-.2A.74.74,0,0,0,39.51,52.36Z"/><path id="path15280" class="cls-42" d="M40.09,50.43a.79.79,0,0,0-.3-.06l-.22,0a.43.43,0,0,0-.19.1c-.09,0-.09,0,.1.13a1.29,1.29,0,0,0,.18.14.94.94,0,0,0,.23.06.6.6,0,0,0,.26,0c.11,0,.12-.06.15-.18s0-.14-.08-.21S40.12,50.44,40.09,50.43Z"/><path id="path15282" class="cls-42" d="M40.13,52.8a.85.85,0,0,0-.31-.06c-.09,0-.14,0-.22,0s-.14.07-.19.1-.08,0,.1.13l.18.14a1,1,0,0,0,.24.06.76.76,0,0,0,.25,0c.12,0,.13-.06.16-.18s0-.14-.08-.21S40.16,52.81,40.13,52.8Z"/><path id="path15284" class="cls-42" d="M41,52.76a.87.87,0,0,0-.31,0c-.1,0-.14,0-.22,0a.38.38,0,0,0-.19.09c-.08.05-.09,0,.1.14s.13.11.18.13a1,1,0,0,0,.24.06.55.55,0,0,0,.25,0c.12,0,.13-.06.16-.18s0-.14-.08-.21A.61.61,0,0,0,41,52.76Z"/><path id="path15286" class="cls-42" d="M41.18,53.25a.69.69,0,0,0-.31,0c-.09,0-.14,0-.22,0a.42.42,0,0,0-.19.09c-.08,0-.09,0,.1.13s.13.12.18.14a1,1,0,0,0,.24.06.56.56,0,0,0,.25,0c.12,0,.13-.06.16-.18s0-.14-.08-.21S41.21,53.26,41.18,53.25Z"/><path id="path15288" class="cls-42" d="M40.91,51.19a.85.85,0,0,0-.31-.06c-.1,0-.14,0-.22,0a.49.49,0,0,0-.19.1c-.08.05-.09,0,.1.13s.13.12.18.14a1,1,0,0,0,.24.06.74.74,0,0,0,.25,0c.12,0,.13-.06.16-.18s0-.14-.08-.21S40.93,51.2,40.91,51.19Z"/><path id="path15290" class="cls-42" d="M41.09,50.77a.87.87,0,0,0-.31-.05c-.1,0-.14,0-.22,0s-.14.07-.19.09-.09,0,.1.14a1.76,1.76,0,0,0,.18.13,1,1,0,0,0,.24.06.8.8,0,0,0,.25,0c.12,0,.13-.06.16-.19s0-.14-.08-.21Z"/><path id="path15292" class="cls-42" d="M39.6,51.77a.75.75,0,0,0-.3-.06c-.1,0-.15,0-.22,0a.35.35,0,0,0-.19.1c-.09,0-.09,0,.1.13l.18.14a.92.92,0,0,0,.24.06.74.74,0,0,0,.25,0c.12,0,.13-.06.16-.19s0-.13-.08-.2A.35.35,0,0,0,39.6,51.77Z"/><path id="path15294" class="cls-42" d="M39.84,52.17a.67.67,0,0,0-.3-.06c-.1,0-.15,0-.23,0s-.14.07-.19.09-.08,0,.1.14l.18.14a1.25,1.25,0,0,0,.24.05.8.8,0,0,0,.25,0c.12,0,.13-.06.16-.19s0-.14-.08-.2A.28.28,0,0,0,39.84,52.17Z"/><path id="path15296" class="cls-42" d="M43.84,53.42a.93.93,0,0,0-.3,0l-.2.11a.36.36,0,0,0-.14.16c-.06.07-.08,0,.14.09s.16.06.21.06a.8.8,0,0,0,.25,0,.56.56,0,0,0,.24-.07c.1-.06.1-.1.08-.22s0-.13-.14-.17S43.87,53.42,43.84,53.42Z"/><path id="path15298" class="cls-42" d="M43.67,53.12a.81.81,0,0,0-.3,0c-.1,0-.15,0-.22,0s-.15.07-.19.09-.09,0,.1.14a1.08,1.08,0,0,0,.18.13.64.64,0,0,0,.23.06.86.86,0,0,0,.26,0c.11,0,.12-.06.15-.19s0-.14-.08-.2A.5.5,0,0,0,43.67,53.12Z"/><path id="path2063" class="cls-45" d="M43.61,46.94v.93h-1.2v.67h1.16v3.24h.82l0-3.25H45.6v-.67H44.37l0-.93Z"/><path id="path15300" class="cls-42" d="M42,50.72a.75.75,0,0,0-.3-.06c-.1,0-.15,0-.22,0a.35.35,0,0,0-.19.1c-.08.05-.09,0,.1.13a1.29,1.29,0,0,0,.18.14,1,1,0,0,0,.24.06.74.74,0,0,0,.25,0c.12,0,.13-.06.16-.18s0-.14-.08-.21A.7.7,0,0,0,42,50.72Z"/><path id="path15302" class="cls-42" d="M39.64,53a.84.84,0,0,0-.3-.06l-.22,0a.43.43,0,0,0-.19.1c-.09.05-.09,0,.09.13s.14.12.18.14a1.2,1.2,0,0,0,.24.06.82.82,0,0,0,.26,0c.11,0,.12-.06.15-.18s0-.14-.08-.21S39.67,53,39.64,53Z"/><path id="path15304" class="cls-42" d="M42.55,54.07a1,1,0,0,0-.29.08c-.09.05-.12.09-.19.13s-.1.12-.13.16-.08.05.14.08a2,2,0,0,0,.23,0,1.39,1.39,0,0,0,.23,0,.6.6,0,0,0,.24-.09c.1-.07.09-.11.07-.23s-.06-.13-.16-.15S42.58,54.07,42.55,54.07Z"/><path id="path15306" class="cls-42" d="M43.11,54.35a.81.81,0,0,0-.3-.05c-.1,0-.15,0-.22,0s-.15.07-.19.09-.09,0,.09.14a1.64,1.64,0,0,0,.19.13.64.64,0,0,0,.23.06.86.86,0,0,0,.26,0c.11,0,.12-.06.15-.19s0-.14-.08-.2A.5.5,0,0,0,43.11,54.35Z"/><path id="path15308" class="cls-42" d="M43.27,52.71a.75.75,0,0,0-.3-.06c-.1,0-.15,0-.22,0a.35.35,0,0,0-.19.1c-.08,0-.09,0,.1.13l.18.14a1,1,0,0,0,.24.06.74.74,0,0,0,.25,0c.12,0,.13-.06.16-.19s0-.13-.08-.2A.35.35,0,0,0,43.27,52.71Z"/><path id="path15310" class="cls-42" d="M42.32,52.38a.87.87,0,0,0-.31-.05c-.1,0-.14,0-.22,0a.38.38,0,0,0-.19.09c-.08,0-.09,0,.1.14s.13.11.18.13a1,1,0,0,0,.24.06.55.55,0,0,0,.25,0c.12,0,.13,0,.16-.18s0-.14-.08-.21A.61.61,0,0,0,42.32,52.38Z"/><path id="path15312" class="cls-42" d="M44.73,53.28a.72.72,0,0,0,.31,0c.1,0,.14,0,.22,0a.46.46,0,0,0,.18-.11c.08-.06.09,0-.11-.13s-.14-.1-.19-.12a1.33,1.33,0,0,0-.24,0,1.19,1.19,0,0,0-.26,0c-.11,0-.12.07-.14.2s0,.14.1.2S44.7,53.28,44.73,53.28Z"/><path id="path15314" class="cls-42" d="M43.13,51.71a.85.85,0,0,0-.3-.05c-.1,0-.15,0-.22,0s-.15.07-.19.09-.09,0,.09.14l.18.13a1.2,1.2,0,0,0,.24.06.86.86,0,0,0,.26,0c.11,0,.12-.06.15-.19s0-.14-.08-.21Z"/><path id="path15316" class="cls-42" d="M45.38,54.34a.93.93,0,0,0,.31,0c.09,0,.14,0,.21,0s.14-.07.19-.1.08,0-.11-.13-.14-.1-.19-.12a.57.57,0,0,0-.24,0,.58.58,0,0,0-.26,0c-.11,0-.12.07-.14.2s0,.14.09.2Z"/><path id="path15318" class="cls-42" d="M46.26,53.49a1,1,0,0,0,.31,0c.1,0,.15,0,.22-.05s.14-.07.18-.1.09,0-.11-.13-.14-.1-.19-.12a.55.55,0,0,0-.24,0,.54.54,0,0,0-.25,0c-.12,0-.12.07-.14.2s0,.14.09.2Z"/><path id="path15320" class="cls-42" d="M43.72,52.77a.86.86,0,0,0,.3,0c.1,0,.15,0,.22,0a.4.4,0,0,0,.18-.11c.08-.06.09,0-.11-.13s-.14-.1-.19-.12a1.19,1.19,0,0,0-.24,0,.69.69,0,0,0-.25,0c-.12,0-.12.07-.14.19s0,.14.09.2A.7.7,0,0,0,43.72,52.77Z"/><path id="path15322" class="cls-42" d="M44.2,52.51a.74.74,0,0,0,.31,0c.1,0,.14,0,.22,0a.4.4,0,0,0,.18-.11c.08-.06.09,0-.11-.13s-.14-.1-.19-.12a1.19,1.19,0,0,0-.24,0,1.1,1.1,0,0,0-.25,0c-.12,0-.13.07-.15.2s0,.14.1.2S44.17,52.51,44.2,52.51Z"/><path id="path17945" class="cls-42" d="M40.29,50.83a.84.84,0,0,0-.3-.06c-.1,0-.15,0-.22,0a.35.35,0,0,0-.19.1c-.09.05-.09,0,.09.13l.18.14a1.2,1.2,0,0,0,.24.06.82.82,0,0,0,.26,0c.11,0,.12-.06.15-.19s0-.13-.08-.2A.28.28,0,0,0,40.29,50.83Z"/><path id="path17947" class="cls-42" d="M39.48,51.37a.85.85,0,0,0-.31-.06l-.22,0a.42.42,0,0,0-.19.09c-.08.05-.09,0,.1.13s.13.12.18.14a1,1,0,0,0,.24.06.56.56,0,0,0,.25,0c.12,0,.13-.06.16-.18s0-.14-.08-.21S39.51,51.38,39.48,51.37Z"/><path id="path17949" class="cls-42" d="M40.27,51.41a.79.79,0,0,0-.3-.06c-.1,0-.15,0-.22,0a.35.35,0,0,0-.19.1c-.09.05-.09,0,.1.13l.18.14a.66.66,0,0,0,.23,0,.86.86,0,0,0,.26,0c.11,0,.12-.06.16-.19s0-.14-.09-.2A.28.28,0,0,0,40.27,51.41Z"/><path id="path17951" class="cls-42" d="M47.89,51.3a1.1,1.1,0,0,1,.3,0,1.56,1.56,0,0,1,.21.08c.08,0,.13.1.17.14s.08,0-.13.11a1.61,1.61,0,0,0-.21.09,1,1,0,0,1-.24,0,.68.68,0,0,1-.26,0c-.1-.05-.1-.09-.1-.22s0-.13.12-.18Z"/><path id="path15166" class="cls-42" d="M44.53,51.52c-.24,0-.19-.11-.51.09a.39.39,0,0,0-.09.38c0,.15.57.18.69.15s.24-.2.36-.36S44.8,51.61,44.53,51.52Z"/><path id="path17955" class="cls-46" d="M44.47,62.6c-.16-.09-.15-.34-.15-.61a2.57,2.57,0,0,0,0-.51c0-.09,0-.07-.07-.14"/><path id="path17957" class="cls-47" d="M43.53,62.5c-.05-.19.38-.16.47-.33s0-.37-.08-.47-.07-.1-.07-.22"/><path id="path21452" class="cls-46" d="M43.72,58c-.15-.09-.14-.34-.14-.62a2.47,2.47,0,0,0,0-.5c0-.1,0-.08-.07-.15"/><path id="path21454" class="cls-46" d="M40.59,62.29c0-.17.3-.22.56-.28a2.38,2.38,0,0,0,.49-.15c.08,0,.06,0,.12-.1"/><path id="path21456" class="cls-46" d="M44.16,60c-.15-.09-.15-.34-.15-.62a2.48,2.48,0,0,0,0-.5.71.71,0,0,0-.07-.15"/><path id="path21458" class="cls-46" d="M44.3,56.29c-.15-.09-.14-.34-.14-.61a2.57,2.57,0,0,0,0-.51c0-.09,0-.07-.07-.14"/><path id="path22337" class="cls-10" d="M48,38.16a7.2,7.2,0,0,1-2.46,1.46c-.61,0-1.39-.65-2-1.08-1,.71-1.8,1.33-2.28,1.31s-1.35-.8-1.92-1.23c-.69.49-1.67,1.6-2.14,1.54a3.92,3.92,0,0,1-1.71-.94l-.44.34c.22.12,1.47,1.1,2.16,1.07s1.59-1,2.15-1.36c.47.31,1.13,1.11,2,1.1.55,0,1.52-.79,2.18-1.28a7.34,7.34,0,0,0,2.07,1.08c.73,0,1.88-1,2.41-1.32A4.74,4.74,0,0,0,50.07,40c.64,0,1.49-.73,2-1.14A4.1,4.1,0,0,0,54.26,40a6.4,6.4,0,0,0,2.12-1.15,8.32,8.32,0,0,0,2.08,1.22A5.88,5.88,0,0,0,60.72,39,5.41,5.41,0,0,0,63,40.31a4.47,4.47,0,0,0,2.11-1.19c.4.34,1.46,1.47,2.11,1.5.84,0,2.14-1.16,2.42-1.3L69,39.2c-.31.16-1.1.95-1.84,1-.46,0-1.86-1.3-2.1-1.66a5.18,5.18,0,0,1-2.17,1.36,7.32,7.32,0,0,1-2.17-1.36,6.88,6.88,0,0,1-2.24,1.1,5.88,5.88,0,0,1-2.08-1.31,6.11,6.11,0,0,1-2.19,1.23c-.51,0-1.68-.93-2.19-1.27-.42.29-1.47,1.25-2,1.24A5.5,5.5,0,0,1,48,38.16Z"/><path id="path1545" class="cls-10" d="M69.21,33.82c-.39,0-.26-.18-.75,0A1.35,1.35,0,0,0,67.79,35c-.21.24-.34.14-.35,1.05,0,.64.84,1,1,1.1,0,.68-.16,2.11.67,2.22s.81-.38.87-.9a19.83,19.83,0,0,0-.09-2.58C69.76,34.62,69.41,33.83,69.21,33.82Z"/><path id="path5406" class="cls-10" d="M72,29.36a7.94,7.94,0,0,0-2,2.08,9.7,9.7,0,0,0-.21,1.45c0,.41.09,1.37.08,1.64s0,.62,0,.92a.94.94,0,0,1-.35.81,1,1,0,0,1-1-.06,1,1,0,0,1-.29-.82,5.88,5.88,0,0,1,.38-.94,6.58,6.58,0,0,0,.3-1.61,2.55,2.55,0,0,0-.42-1c-.31-.51-.74-.69-1.24-1.31A15,15,0,0,0,69,30.38C69.67,30.08,71.81,29.19,72,29.36Z"/><path id="path1543" class="cls-10" d="M35,34c.39,0,.26-.18.75,0a1.37,1.37,0,0,1,.67,1.17c.21.25.34.15.35,1,0,.65-.84,1-1.05,1.1,0,.68.17,2.12-.66,2.22s-.81-.37-.87-.89A19.93,19.93,0,0,1,34.29,36C34.46,34.76,34.81,34,35,34Z"/><path id="path5410" class="cls-10" d="M32.35,29.4a7.2,7.2,0,0,1,1.76,2.08,8.51,8.51,0,0,1,.22,1.45c0,.41-.09,1.37-.08,1.64s0,.62,0,.92.09.78.35.93a1,1,0,0,0,1-.13,1,1,0,0,0,.27-.87,5.88,5.88,0,0,0-.38-.94,7.07,7.07,0,0,1-.31-1.61,2.6,2.6,0,0,1,.43-1c.26-.4.84-.51,1.35-1.13a5,5,0,0,1-2.3-1A3.82,3.82,0,0,0,32.35,29.4Z"/><path id="path1637" class="cls-10" d="M36.11,45.24c-.47,0-.69.75.08.72.38,0,7.85-.62,16-.62,8.34,0,15.35.56,15.85.56s.59-.79.14-.81-7.61-.47-16-.46C43.89,44.63,36.34,45.25,36.11,45.24Z"/><path id="path1639" class="cls-48" d="M68.21,43.38c-.06.29,0,.94.23,1s.75-.51.83-.9,0-1-.29-1.07S68.27,43.08,68.21,43.38Z"/><path id="path3387" class="cls-48" d="M36.11,43.42c0,.29,0,.94-.28,1s-.72-.55-.78-.94.05-1,.35-1.06S36.07,43.12,36.11,43.42Z"/><path id="path2096" class="cls-45" d="M54,64.14h1.77V88a16.26,16.26,0,0,1-1.77.3Z"/><path id="path1645" class="cls-8" d="M39.5,71.35a.59.59,0,0,0,.15.44.35.35,0,0,0,.42.14s0-.09-.12-.6Z"/><path id="path1647" class="cls-49" d="M41.33,70.55a5.89,5.89,0,0,0,.62-.14,1.18,1.18,0,0,0,.49-.31"/><path id="path2522" class="cls-28" d="M41.87,70.19h0s0,0,0,0,0,.07,0,.11l-.07.11"/><path id="path2524" class="cls-28" d="M42,70.19h0s0,0,0,0,0,.07,0,.11l-.07.11"/><path id="path2526" class="cls-28" d="M42.07,70.13v0s0,0,0,0a.54.54,0,0,1,0,.11l-.06.11"/><path id="path2528" class="cls-28" d="M40.34,71.65h0s0,0,0,0l0,.11-.07.11"/><path id="path2530" class="cls-28" d="M40.45,71.63h0s0,0,0,0a.54.54,0,0,0,0,.11l-.07.11"/><path id="path2532" class="cls-33" d="M39.81,71.73a.56.56,0,0,1-.11-.2v0"/><path id="path2525" class="cls-40" d="M48.7,70.42s.17-.07.23,0,.12.2.15.1.33-.19.33-.32.49-.51.46-.58.18-1.14.08-1.08-.07,0-.15,0-.14.65-.35,1.12a1.47,1.47,0,0,1-.5.54A1.15,1.15,0,0,0,48.7,70.42Z"/><path id="path4276" class="cls-28" d="M48.35,71.25v0s0,.07,0,.11l-.07.11"/><path id="path4278" class="cls-28" d="M48.26,71.26v0s0,0,0,0a1,1,0,0,0,0,.11,1.05,1.05,0,0,1-.07.11"/><path id="path4280" class="cls-28" d="M48.44,71.25v0s0,.07,0,.11l-.07.11"/><path id="path4282" class="cls-28" d="M46.27,70.7l.06-.11"/><path id="path4284" class="cls-28" d="M46.31,70.78l.1-.16"/><path id="path4286" class="cls-28" d="M46.4,70.77l.07-.11"/><path id="path4288" class="cls-28" d="M49.2,70.8v0l0,0-.08-.09a.39.39,0,0,0-.06-.11"/><path id="path4290" class="cls-28" d="M49.34,70.41h0l-.11,0-.13,0"/><path id="path4292" class="cls-28" d="M50,68.45h0s0,0,0,0a.36.36,0,0,1,0,.11.53.53,0,0,1,0,.12"/><path id="path4294" class="cls-28" d="M49.88,68.49v.05s0,.07,0,.11l0,.13"/><path id="path4296" class="cls-41" d="M50.52,68.57a.69.69,0,0,0-.32-.26l-.11,0"/><path id="path4300" class="cls-34" d="M50.7,69a1.77,1.77,0,0,1-.27.66l0,0"/><path id="path5181" d="M48,67.37h.14c.21,0,0,0,0,0a.42.42,0,0,0,.14-.06l.18-.1s-.11.2-.16.2a1.08,1.08,0,0,1-.31,0h-.14Z"/><path id="path1696" class="cls-28" d="M41.63,80.68a.29.29,0,0,0,0,.08l-.05.08a.22.22,0,0,1-.06.07v0"/><path id="path1698" class="cls-28" d="M41.72,80.66a.39.39,0,0,0,0,.09l0,.08-.06.07v0"/><path id="path1700" class="cls-28" d="M42.12,78.6a.34.34,0,0,0,0,.09v.1a.29.29,0,0,1,0,.09v0"/><path id="path1704" class="cls-28" d="M42.18,78.61s0,0,0,.08l0,.09a.29.29,0,0,1,0,.09v0"/><path id="path1706" class="cls-28" d="M41.29,80.26H41.1l-.09,0h0"/><path id="path1708" class="cls-28" d="M41.36,80.46l-.23,0-.09,0h-.12"/><path id="path1710" class="cls-32" d="M41,81s0-.16,0-.2a.06.06,0,0,1,0,0"/><path id="path1712" class="cls-32" d="M41.06,81s0-.16,0-.19,0-.05,0-.05"/><g id="g3435"><path id="path3437" class="cls-9" d="M50,81.65c-.14-.1-.21-.2-.33-.15s-.12.1-.12.1a1.59,1.59,0,0,0-.09-.52.42.42,0,0,1,.42-.23C49.94,80.83,50.13,81.77,50,81.65Z"/><path id="path3439" class="cls-9" d="M48.72,83.47c-.21.09-.26-.08-.49-.13a9.14,9.14,0,0,1,.67-1,3.63,3.63,0,0,0,.15-.71c.13-.44.25-.28.41-.3s.13-.17.19-.09a4,4,0,0,1,.21.84,1.45,1.45,0,0,1-.43.67A2.92,2.92,0,0,1,48.72,83.47Z"/></g><path id="path1669" class="cls-8" d="M49.42,81.32a.2.2,0,0,0,0-.21c-.06-.07.23,0,.18.14s-.23.09-.22.07Z"/><path id="path1677" class="cls-8" d="M48.84,84.93c0-.06,0-.16,0-.27-.18-.1-.32.13-.29.14A1.56,1.56,0,0,0,48.84,84.93Z"/><path id="path1683" class="cls-8" d="M50.86,82.38a.36.36,0,0,0-.2.33c0,.13,0,.27-.2.3S50,82.6,50,82.6s.13-.17.11-.3.12-.26.25-.33S51.05,82.3,50.86,82.38Z"/><g id="g1695"><path id="path1697" class="cls-9" d="M51.47,81.37a.61.61,0,0,1-.31.48c-.15.07-.14.45-.16.58s-.53-.3-.54-.43a.6.6,0,0,1,.22-.55c.13-.08.28-.16.31-.25S51,81,51,81,51.48,81.22,51.47,81.37Z"/></g><path id="path1681" class="cls-8" d="M50.78,80.94c-.07-.07.25-.09.25.13s-.23.33-.22.29A1,1,0,0,0,50.78,80.94Z"/><path id="path1685" class="cls-8" d="M50.14,82.41c0,.18-.12.22-.16.11s-.08-.15,0-.17S50.1,82.39,50.14,82.41Z"/><path id="path4312" class="cls-49" d="M52.15,64.1V88.45"/><path id="path2139" class="cls-45" d="M43.12,64.12l0,8.34h-7c0,.72,0,1.23.1,2H43.1V86.22c.66.4,1.32.75,2.07,1.11V74.46h7v-2h-7V64.12Z"/><path id="path5260" class="cls-45" d="M57.51,64.15h1.77V86.71a15.41,15.41,0,0,1-1.77.77Z"/><path id="path5262" class="cls-45" d="M61.05,64.16h1.77v20a15.78,15.78,0,0,1-1.77,1.48Z"/><path id="path5264" class="cls-45" d="M64.59,64.17h1.76v15a16.48,16.48,0,0,1-1.76,2.93V64.17Z"/><path id="path5266" class="cls-28" d="M50.09,79.15l.08,0,.08.06s0,0,.06.07h0"/><path id="path5268" class="cls-28" d="M50.11,79.61l0-.08,0-.09a.37.37,0,0,1,0-.09v0"/><path id="path5270" class="cls-28" d="M46.4,84.9l-.08,0-.09,0h-.12"/><path id="path5272" class="cls-28" d="M46.42,85l-.06,0-.09,0h-.11"/><path id="path5274" class="cls-28" d="M48.11,83.61l-.23.13-.09,0H47.7l-.12,0"/><path id="path5276" class="cls-28" d="M49.42,85.59l-.23-.14-.07-.06,0-.08a.49.49,0,0,0,0-.11"/><path id="path5278" class="cls-28" d="M49.16,81.94a2.35,2.35,0,0,0,0,.27l0,.09a.25.25,0,0,1,0,.09.71.71,0,0,0-.07.09"/><path id="path5280" class="cls-50" d="M49.67,81.06l.08,0,.09,0H50"/><path id="path5284" class="cls-28" d="M49.67,81.17l.08,0,.09,0,.09,0h0"/></g></g></svg>