<svg width="442" height="312" fill="none" xmlns="http://www.w3.org/2000/svg"><g opacity="0.2"><path d="M330.238 271.443H404.742L367.496 312H292.993L330.238 271.443Z" fill="url(#paint0_linear_1019_65293)"/><path d="M292.993 230.886H367.496L330.238 271.443H255.735L292.993 230.886Z" fill="url(#paint1_linear_1019_65293)"/><path d="M255.735 190.329H330.238L292.993 230.886L218.477 230.886L255.735 190.329Z" fill="url(#paint2_linear_1019_65293)"/><path d="M218.477 149.772H292.993L255.735 190.329L181.231 190.329L218.477 149.772Z" fill="url(#paint3_linear_1019_65293)"/><path d="M181.231 109.215H255.735L218.477 149.772L143.973 149.772L181.231 109.215Z" fill="url(#paint4_linear_1019_65293)"/><path d="M37.2581 109.215H111.762L74.5035 149.772H0L37.2581 109.215Z" fill="url(#paint5_linear_1019_65293)"/><path d="M330.238 109.215H404.742L367.496 149.772L292.993 149.772L330.238 109.215Z" fill="url(#paint6_linear_1019_65293)"/><path d="M367.496 149.772L442 149.772L404.742 190.329L330.238 190.329L367.496 149.772Z" fill="url(#paint7_linear_1019_65293)"/><path d="M181.231 271.443H255.735L218.477 312H143.973L181.231 271.443Z" fill="url(#paint8_linear_1019_65293)"/><path d="M143.973 230.886L218.477 230.886L181.231 271.443H106.715L143.973 230.886Z" fill="url(#paint9_linear_1019_65293)"/><path d="M106.715 190.329L181.231 190.329L143.973 230.886L69.4697 230.886L106.715 190.329Z" fill="url(#paint10_linear_1019_65293)"/><path d="M262.237 28.1139H336.741L299.495 68.6708H224.979L262.237 28.1139Z" fill="url(#paint11_linear_1019_65293)"/><path d="M224.979 -12.4431H299.495L262.237 28.1139H187.734L224.979 -12.4431Z" fill="url(#paint12_linear_1019_65293)"/><path d="M336.741 -53H411.257L373.999 -12.4431H299.495L336.741 -53Z" fill="url(#paint13_linear_1019_65293)"/></g><defs><linearGradient id="paint0_linear_1019_65293" x1="11.1055" y1="73.4307" x2="427.589" y2="205.481" gradientUnits="userSpaceOnUse"><stop stop-color="#33383E"/><stop offset="1" stop-color="#9FA0A4" stop-opacity="0"/></linearGradient><linearGradient id="paint1_linear_1019_65293" x1="11.1055" y1="73.4307" x2="427.589" y2="205.481" gradientUnits="userSpaceOnUse"><stop stop-color="#33383E"/><stop offset="1" stop-color="#9FA0A4" stop-opacity="0"/></linearGradient><linearGradient id="paint2_linear_1019_65293" x1="11.1055" y1="73.4307" x2="427.589" y2="205.481" gradientUnits="userSpaceOnUse"><stop stop-color="#33383E"/><stop offset="1" stop-color="#9FA0A4" stop-opacity="0"/></linearGradient><linearGradient id="paint3_linear_1019_65293" x1="11.1055" y1="73.4307" x2="427.589" y2="205.481" gradientUnits="userSpaceOnUse"><stop stop-color="#33383E"/><stop offset="1" stop-color="#9FA0A4" stop-opacity="0"/></linearGradient><linearGradient id="paint4_linear_1019_65293" x1="11.1055" y1="73.4307" x2="427.589" y2="205.481" gradientUnits="userSpaceOnUse"><stop stop-color="#33383E"/><stop offset="1" stop-color="#9FA0A4" stop-opacity="0"/></linearGradient><linearGradient id="paint5_linear_1019_65293" x1="11.1055" y1="73.4307" x2="427.589" y2="205.481" gradientUnits="userSpaceOnUse"><stop stop-color="#33383E"/><stop offset="1" stop-color="#9FA0A4" stop-opacity="0"/></linearGradient><linearGradient id="paint6_linear_1019_65293" x1="11.1055" y1="73.4307" x2="427.589" y2="205.481" gradientUnits="userSpaceOnUse"><stop stop-color="#33383E"/><stop offset="1" stop-color="#9FA0A4" stop-opacity="0"/></linearGradient><linearGradient id="paint7_linear_1019_65293" x1="11.1055" y1="73.4307" x2="427.589" y2="205.481" gradientUnits="userSpaceOnUse"><stop stop-color="#33383E"/><stop offset="1" stop-color="#9FA0A4" stop-opacity="0"/></linearGradient><linearGradient id="paint8_linear_1019_65293" x1="11.1055" y1="73.4307" x2="427.589" y2="205.481" gradientUnits="userSpaceOnUse"><stop stop-color="#33383E"/><stop offset="1" stop-color="#9FA0A4" stop-opacity="0"/></linearGradient><linearGradient id="paint9_linear_1019_65293" x1="11.1055" y1="73.4307" x2="427.589" y2="205.481" gradientUnits="userSpaceOnUse"><stop stop-color="#33383E"/><stop offset="1" stop-color="#9FA0A4" stop-opacity="0"/></linearGradient><linearGradient id="paint10_linear_1019_65293" x1="11.1055" y1="73.4307" x2="427.589" y2="205.481" gradientUnits="userSpaceOnUse"><stop stop-color="#33383E"/><stop offset="1" stop-color="#9FA0A4" stop-opacity="0"/></linearGradient><linearGradient id="paint11_linear_1019_65293" x1="11.1055" y1="73.4307" x2="427.589" y2="205.481" gradientUnits="userSpaceOnUse"><stop stop-color="#33383E"/><stop offset="1" stop-color="#9FA0A4" stop-opacity="0"/></linearGradient><linearGradient id="paint12_linear_1019_65293" x1="11.1055" y1="73.4307" x2="427.589" y2="205.481" gradientUnits="userSpaceOnUse"><stop stop-color="#33383E"/><stop offset="1" stop-color="#9FA0A4" stop-opacity="0"/></linearGradient><linearGradient id="paint13_linear_1019_65293" x1="11.1055" y1="73.4307" x2="427.589" y2="205.481" gradientUnits="userSpaceOnUse"><stop stop-color="#33383E"/><stop offset="1" stop-color="#9FA0A4" stop-opacity="0"/></linearGradient></defs></svg>